<svg viewBox="0 0 1440.16 119.08" xmlns="http://www.w3.org/2000/svg"><path d="m655.42 56.9c1.91-1.09 3.66-2.44 5.2-4.01 1.01-1.01 2.24-1.78 3.59-2.24.34-.15.64-.38.87-.67.46-.46.88-.97 1.32-1.44 1.74-1.85 3.96-2.83 6.1-3.9 1.26-.62 2.67-.84 3.92-1.45 1.87-.92 3.64-2.11 5.5-3.04 1.45-.69 2.93-1.31 4.44-1.85 1.21-.46 2.45-.83 3.68-1.23.54-.18 1.09-.28 1.62-.49 1.66-.65 3.22.08 4.82.38 2.05.38 3.83 1.6 5.8 2.16 2.13.61 4.29 1.13 6.45 1.54 3.01.54 5.93 1.47 8.69 2.77.97.61 2.07.99 3.21 1.11 1.19.09 2.38.06 3.56-.11.91-.47 2.02-.31 2.76.4 1.78 1.75 4.06 2.37 6.14 3.46 1.77.84 3.65 1.43 5.59 1.75 1.14.3 2.27.66 3.37 1.08 3.39 1.26 7.08 1.51 10.61.73 2.28-.65 4.52-1.44 6.7-2.37 1.16-.44 2.35-.8 3.56-1.09.77-.25 1.61-.07 2.2.48 2.24 2.18 5 3.37 7.59 4.86.82.48 1.66.92 2.45 1.46 1.32.71 2.72 1.27 4.17 1.67.96.38 2.01.53 2.94.99 1.93 1.02 4.08 1.53 6.27 1.49.26-.03.52 0 .77.05 3.09.96 6.25.54 9.38.51 1.33-.11 2.65-.39 3.92-.82 1.07-.23 2.18-.07 3.14.46 1.06.52 2.19.89 3.36 1.1 1.58.2 3.15.49 4.7.86 1.79.45 3.64.61 5.47.91.51.08 1.01.22 1.52.27 1.64.15 3.28.26 4.91.42 1.89.18 3.78.48 5.67.58 2.26.11 4.54.12 6.8.04.88-.09 1.73-.33 2.53-.71 2.43-.88 4.9-1.61 7.42-2.19.89-.25 1.81-.38 2.7-.67.66-.2 1.37-.11 1.95.26 3.21 1.85 6.7 2.87 10.09 4.16 1.07.38 2.17.67 3.28.87 2.07.4 4.15.71 6.23 1.08 2.32.42 4.64.94 6.97 1.29 2.52.51 5.09.78 7.66.82 2.94-.12 5.88-.09 8.81.03 2.1.14 4.18-.48 5.86-1.74 2.82-2.17 6.05-3.4 9.06-5.11 2.06-1.13 4.21-2.1 6.42-2.9 2.04-.77 4.15-1.29 6.24-1.88.4-.1.81-.14 1.23-.12 1.39-.02 2.79.05 4.18-.06 2.48-.03 4.95.37 7.29 1.18 1.74.47 3.5.83 5.24 1.29.94.25 1.86.6 2.79.92.8.22 1.58.5 2.34.84 1.4.73 2.92.56 4.37.94 1.14.18 2.31-.07 3.27-.71 1.43-.76 2.83-1.6 4.3-2.28 1.55-.85 3.21-1.5 4.92-1.93 2.2-.4 4.48-.71 6.66.48 1.57.83 3.19 1.56 4.85 2.18 1.3.56 2.79.49 4.04-.18 1.88-1.03 3.9-1.72 5.92-.94 1.57.49 3.21.71 4.85.67 1.34.02 2.67.16 3.98.4 1.72.31 3.5.26 5.2-.14 1.33-.2 2.61-.7 3.73-1.45.59-.33 1.22-.6 1.87-.79 1.82-.74 3.65-1.46 5.47-2.22 1.26-.47 2.61-.68 3.95-.59.87.02 1.75 0 2.68 0 .33-.38.61-.79.86-1.23.81-2.12 3.17-3.18 5.29-2.37.08.03.16.06.23.1 1.37.48 2.73.97 4.08 1.5.53.19 1.1.21 1.64.06 2.81-.66 5.66-1.08 8.54-1.24 2.72-.03 5.35-.92 7.52-2.56 2.22-1.68 4.32-3.51 6.28-5.48 1.08-1.09 2.53-1.74 4.06-1.83 2.57-.29 5.16-.12 7.67.48 1.9.46 3.84.73 5.79.81.67 0 1.32-.14 1.93-.42 1.06-.4 2.08-.95 3.14-1.36.67-.28 1.37-.46 2.09-.54 1.59-.16 3.15-.56 4.63-1.19.57-.29 1.25-.23 1.77.13 1.03.75 2.08 1.48 3.07 2.29 1.47 1.2 3.1 2.17 4.85 2.88 2.16.9 4.28 1.92 6.46 2.74 1.79.67 3.61 1.23 5.47 1.68 2.6.66 5.28.97 7.82 1.83 2.1.71 4.26.57 6.37 1.13 3.89 1.08 7.56 2.85 10.83 5.23 2.54 1.89 5.26 3.53 8.12 4.89 1.76.78 3.58 1.4 5.39 2.03 3.52 1.22 7.01 2.58 10.59 3.54 2.46.81 5.05 1.11 7.62.89 2.46-.43 4.99.03 7.15 1.29 1.32.83 2.96.97 4.41.39 2.22-.66 4.48-1.19 6.75-1.61 1.81-.4 3.64-.68 5.43-1.12 2.7-.78 5.31-1.85 7.78-3.18 1.59-.78 3.31-1.22 4.95-1.87 2.75-1.09 5.5-2.19 8.22-3.37 2.1-.9 4.17-1.88 6.21-2.92 1.67-.86 3.27-1.89 4.92-2.8 1.72-1.02 3.48-1.95 5.3-2.78 2.34-.95 4.86-1.4 7.39-1.32 1.61.05 3.18.44 4.63 1.13 1.09.53 2.34.61 3.48.22.89-.32 1.79-.44 2.68-.67 2.01-.52 4.06-.64 6.09-.95 2-.23 3.96-.77 5.8-1.6.88-.46 1.89-.61 2.86-.41 2.15.3 4.23.95 6.17 1.92.65.33 1.33.6 2.03.8 1.56.67 3.17 1.2 4.83 1.58 2.12.31 4.21 1.24 6.4.85 1.52-.24 3.01-.6 4.47-1.07 2.15-.89 4.5-1.15 6.79-.74 2.14.47 4.17 1.36 5.96 2.62 2.93 2.01 5.79 4.17 8.81 6 2.75 1.63 5.59 3.1 8.5 4.43 2.65 1.24 5.41 2.19 8.07 3.38 1.65.74 3.52.85 5.25.32 2.29-.63 4.65-.93 7.02-.89 2.79.06 5.48 1.07 7.64 2.85 3.42 2.74 7.21 4.96 11.27 6.6 1.83.72 3.67 1.42 5.54 2.04.93.24 1.87.41 2.82.52 1.16-.43 2.23-1.08 3.15-1.93 1.38-1.03 2.96-1.78 4.63-2.2 1.67-.6 3.27-1.37 4.79-2.29 1.62-.82 3.44-1.17 5.25-1 2.04.11 4 .8 5.67 1.98 1.14.59 2.35 1.06 3.59 1.39 1.1.46 2.26.77 3.32 1.32 1.11.67 2.37 1.06 3.67 1.12.92-.01 1.84.27 2.75.25 2.47-.06 4.94-.21 7.4-.34.35-.02.71-.11 1.07-.16 1.98-.26 3.98-.44 5.95-.8 2.71-.49 5.44-.27 8.16-.42 2.13-.11 4.13-1.1 5.5-2.73 1.25-1.45 2.85-2.56 4.66-3.22 1.75-.67 3.69-.68 5.44-.01 2.87 1.03 5.79 1.92 8.69 2.87.73.24 1.47.5 2.25.76 0 29.31.11 46.25 0 46.22.63-.02-1439.64.34-1440.06 0-.14 0 .06-40.8.06-75.68.8-.2 1.62-.32 2.44-.35 1.13-.06 2.24-.37 3.23-.92 1.19-.5 2.43-.86 3.63-1.33.49-.19.95-.44 1.36-.76 1.33-1.19 3.09-1.78 4.87-1.63.82.07 1.65.08 2.47.01 1.84-.11 3.52.62 5.24 1.14.48.16.99.25 1.5.28 1.55.02 3.08.25 4.57.67 1.93.54 3.89.91 5.78 1.64.4.12.82.15 1.23.08 2.06-.23 3.92.72 5.87 1.16 2.65.59 4.97 2.09 7.47 3.1 1.29.52 2.66.83 3.96 1.33.79.29 1.54.69 2.22 1.18 1.05.79 2.18 1.48 3.36 2.06 1.26.59 2.39 1.55 3.64 2.18 2.13 1.08 4.32 2.03 6.48 3.03 3.99 1.71 7.87 3.65 11.62 5.83.79.6 1.82.79 2.78.52.25-.07.51-.09.77-.04 1.6.25 3.02-.54 4.49-.97 1.65-.6 3.33-1.11 5.03-1.52 1.76-.3 3.48-.93 5.24-1.29 2.12-.43 4.27-.61 6.38-1.09 2.63-.51 5.3-.75 7.98-.7.36-.03.71-.09 1.06-.17 1.12-.17 2.23-.34 3.35-.5.36-.06.73-.03 1.07-.12 1.6-.41 3.19-.85 4.78-1.28 1.89-.51 3.76-1.1 5.66-1.52 1.76-.39 3.54-.66 5.32-.88 2.6-.34 5.2-.63 7.81-.87 1.38-.13 2.78-.1 4.17-.12 1.81-.02 3.61 0 5.41-.04.61-.01 1.22-.14 1.83-.2.35-.07.71-.09 1.07-.06 2.5.37 5.03.47 7.55.28 2.16.12 4.3.58 6.31 1.37.54.17 1.09.29 1.65.34 1.58.14 3.17.28 4.76.34 3.5.16 6.99.37 10.49.36 1.7.02 3.32-.74 4.38-2.07 1.38-1.84 3.4-3.09 5.66-3.53 1.83-.48 3.56-1.29 5.11-2.38 2.11-1.33 4.46-2.25 6.91-2.72 2.88-.63 5.88-.5 8.7.37 3.41 1.27 6.54 3.19 9.23 5.64 1.79 1.72 3.95 3.01 6.31 3.76 1.58.4 3.14 1.07 4.83.92 2.33-.06 4.64.38 6.78 1.29.33.16.68.27 1.04.32 1.95.11 3.89.34 5.81.69 1.27.19 2.52.56 3.69 1.09.66.31 1.33.57 2.03.78 2.22.66 4.49 1.12 6.79 1.38 1.64.16 3.26.44 4.87.83.76.17 1.56.04 2.21-.38 2.02-1.19 4.16-2.17 6.37-2.93 1.96-.65 3.88-1.45 5.84-2.1 1.22-.41 2.49-.65 3.73-.98 1.09-.28 2.16-.62 3.29-.81 2.33-.43 4.63-.97 6.91-1.63 1.58-.44 3.13-1.06 4.68-1.61 2-.72 3.98-1.47 5.98-2.16 2.2-.77 4.38-1.62 6.61-2.2 3.62-.94 6.92-2.82 10.36-4.27 2.53-1.07 5.03-2.26 7.52-3.44 3.77-1.78 7.52-3.62 11.29-5.4 1.79-.84 3.64-1.55 5.43-2.41 1.29-.59 2.53-1.31 3.69-2.13 2.56-1.74 5.3-3.19 8.19-4.3 4.45-1.89 8.94-3.66 13.26-5.92 1.53-.75 3.12-1.38 4.75-1.86 1.87-.6 3.78-1.05 5.67-1.55.4-.09.81-.14 1.22-.13 2.47-.02 4.95-.07 7.42-.01.92.1 1.83.25 2.73.45 1.37.18 2.75.36 4.13.46 1.08.1 2.16.12 3.25.05 1.84-.13 3.68-.36 5.52-.55.41-.04.82-.08 1.23-.11 1.54-.11 3.09-.12 4.61-.37.96-.23 1.88-.59 2.73-1.09 1.16-.59 2.26-1.37 3.43-1.93 2.31-1.16 4.77-2.01 7.31-2.52.19-.04.37-.11.54-.19 1.98.47 3.8.82 5.57 1.35 2.87.84 5.7 1.82 8.55 2.7 1.33.41 2.69.69 4.02 1.06 1.04.3 2.06.67 3.1.98 1.58.48 3.16.96 4.75 1.42 1.43.42 2.86.87 4.3 1.24.61.09 1.23.14 1.84.15 1.48.18 2.95.39 4.43.57.46.06.92.09 1.39.09 1.55.01 3.09-.02 4.64.03 1.91.04 3.81-.14 5.67-.54 1.76-.34 3.57-.47 5.3-.95 2.38-.67 4.75-1.52 6.56-3.55.76-.85 1.5-1.73 2.21-2.54 1.27-.17 2.56-.08 3.79.26 1.28.41 2.65.44 3.96.11 1.32-.23 2.64-.37 3.98-.44.76-.08 1.53-.18 2.29-.28.96-.13 1.93-.27 2.89-.43.56-.08 1.12-.19 1.66-.34 1.4-.34 2.76-.8 4.08-1.37 2.39-1.19 5.07-1.45 7.32-3.01.52-.36 1.02-.74 1.5-1.16 1.88-1.76 4.24-2.94 6.78-3.38 1.42-.29 2.89-.05 4.14.68 1.67.85 3.39 1.59 5.15 2.24 2.3.95 4.61 1.91 6.93 2.81 1.26.48 2.58.76 3.83 1.24 2.18.84 4.35 1.7 6.49 2.66 2.42 1.09 4.79 2.33 7.2 3.43 3.35 1.49 6.57 3.26 9.61 5.31 1.66 1.3 3.72 1.97 5.83 1.9 1.98-.1 3.94.47 5.56 1.62 1.97 1.13 3.64 2.73 4.86 4.64.77 1.2 1.62 2.35 2.54 3.44 1.9 2.28 4.06 4.33 6.44 6.11 3.81 2.92 7.62 5.83 11.5 8.62 4 2.88 8.06 5.69 12.16 8.41 1.41.88 2.91 1.62 4.47 2.2 1.96.78 3.97 1.41 5.97 2.1 1.15.5 2.44.56 3.64.19 1.74-.65 3.48-1.3 5.24-1.88 1.58-.51 3.27-.51 4.85-.01 1.59.6 3.26.97 4.95 1.09 1.86-.02 3.71 0 5.39 0" fill="#f7f7f7"/></svg>