<svg viewBox="0 0 56 60" xmlns="http://www.w3.org/2000/svg"><g fill="#949b76"><path d="m29 58h-20c-3.86 0-7-3.14-7-7v-1h25c.55 0 1-.45 1-1s-.45-1-1-1h-25v-26h40v9c0 .55.45 1 1 1s1-.45 1-1v-12c0-4.62-3.51-8.44-8-8.94v-5.06c0-2.76-2.24-5-5-5h-18c-2.76 0-5 2.24-5 5v5.06c-4.49.5-8 4.32-8 8.94v32c0 4.96 4.04 9 9 9h20c.55 0 1-.45 1-1s-.45-1-1-1zm-19-53c0-1.65 1.35-3 3-3h18c1.65 0 3 1.35 3 3h-21c-.55 0-1 .45-1 1s.45 1 1 1h21v3h-24zm-8 14c0-3.86 3.14-7 7-7h26c3.86 0 7 3.14 7 7v1h-40z"/><path d="m22 45c1.65 0 3-1.35 3-3v-4h4c1.65 0 3-1.35 3-3s-1.35-3-3-3h-4v-4c0-1.65-1.35-3-3-3s-3 1.35-3 3v4h-4c-1.65 0-3 1.35-3 3s1.35 3 3 3h4v4c0 1.65 1.35 3 3 3zm-7-9c-.55 0-1-.45-1-1s.45-1 1-1h5c.55 0 1-.45 1-1v-5c0-.55.45-1 1-1s1 .45 1 1v5c0 .55.45 1 1 1h5c.55 0 1 .45 1 1s-.45 1-1 1h-5c-.55 0-1 .45-1 1v5c0 .55-.45 1-1 1s-1-.45-1-1v-5c0-.55-.45-1-1-1z"/><path d="m53.37 36.15c-3.51-3.51-9.22-3.51-12.73 0l-8.49 8.49c-3.51 3.51-3.51 9.22 0 12.73 1.7 1.7 3.96 2.64 6.36 2.64s4.67-.94 6.36-2.64l8.49-8.49c3.51-3.51 3.51-9.22 0-12.73zm-9.9 19.8c-1.32 1.32-3.08 2.05-4.95 2.05s-3.63-.73-4.95-2.05c-2.73-2.73-2.73-7.17 0-9.9l3.54-3.54 9.9 9.9zm8.48-8.49-3.54 3.54-9.9-9.9 3.54-3.54c2.73-2.73 7.17-2.73 9.9 0 1.32 1.32 2.05 3.08 2.05 4.95s-.73 3.63-2.05 4.95z"/></g></svg>