<svg viewBox="0 0 48.04 40.88" xmlns="http://www.w3.org/2000/svg"><g fill="#949b76"><path d="m46.89 38.59h-1.34c-.97-3.29-5.42-9.15-10.09-9.15-2.44 0-3.84-.98-5.02-2.24l15.34-8.86c.55-.32.73-1.01.42-1.56-.63-1.09-.26-2.49.84-3.12.55-.32.73-1.01.42-1.56l-5.72-9.9c-.32-.55-1.01-.73-1.56-.42-1.09.63-2.49.25-3.12-.84-.32-.55-1.01-.73-1.56-.42l-18.59 10.73-2.48-2.48 3.12-3.12c1.29-1.29 1.29-3.39 0-4.68-1.29-1.29-3.39-1.29-4.68 0l-3.12 3.12-3.14-3.12c-1.29-1.29-3.39-1.29-4.68 0s-1.29 3.39 0 4.68l3.12 3.12-3.12 3.12c-1.29 1.29-1.29 3.39 0 4.68s3.39 1.29 4.68 0l3.12-3.12 3.12 3.12c.13.13.28.25.43.35-.19.35-.47.65-.84.86-.55.32-.73 1.01-.42 1.56l4.12 7.14c-2 1.49-4.04 2.96-5.85 2.96-4.9 0-7.36 5.99-7.89 9.15h-1.26c-.63 0-1.14.51-1.14 1.14s.51 1.14 1.14 1.14h45.75c.63 0 1.14-.51 1.14-1.14s-.51-1.14-1.14-1.14zm-36.38-27.48c-.43-.43-1.13-.43-1.56 0l-3.9 3.9c-.43.43-1.13.43-1.56 0s-.43-1.13 0-1.56l3.9-3.9c.43-.43.43-1.13 0-1.56l-3.9-3.9c-.43-.43-.43-1.13 0-1.56s1.13-.43 1.56 0l3.9 3.9c.43.43 1.13.43 1.56 0l3.9-3.9c.43-.43 1.13-.43 1.56 0s.43 1.13 0 1.56l-3.9 3.9c-.43.43-.43 1.13 0 1.56l3.9 3.9c.43.43.43 1.13 0 1.56s-1.13.43-1.56 0zm3.99 7.96c.46-.45.79-.99 1.02-1.56.73-.07 1.45-.37 2.01-.94.94-.94 1.19-2.31.76-3.48l17.47-10.09c1.16 1.18 2.89 1.65 4.49 1.2l4.72 8.18c-1.18 1.16-1.65 2.89-1.2 4.49l-14.83 8.57c-1.19-1.42-2.59-2.84-4.92-2.84-2.11 0-4.1 1.16-6.02 2.54l-3.5-6.05zm-9.78 19.52c.53-2.51 2.49-6.86 5.57-6.86 2.67 0 5.15-1.86 7.55-3.66 2.1-1.57 4.27-3.2 6.18-3.2 1.44 0 2.25.9 3.55 2.49 1.59 1.95 3.57 4.37 7.89 4.37 3.3 0 6.69 4.43 7.7 6.86z"/><path d="m17.16 34.02h-2.29c-.63 0-1.14.51-1.14 1.14s.51 1.14 1.14 1.14h2.29c.63 0 1.14-.51 1.14-1.14s-.51-1.14-1.14-1.14z"/><path d="m30.88 34.02h-2.29c-.63 0-1.14.51-1.14 1.14s.51 1.14 1.14 1.14h2.29c.63 0 1.14-.51 1.14-1.14s-.51-1.14-1.14-1.14z"/><path d="m24.02 29.44h-2.29c-.63 0-1.14.51-1.14 1.14s.51 1.14 1.14 1.14h2.29c.63 0 1.14-.51 1.14-1.14s-.51-1.14-1.14-1.14z"/></g></svg>