<svg viewBox="0 0 54.86 58.26" xmlns="http://www.w3.org/2000/svg"><g fill="#949b76"><path d="m53.78 17.46h-25.88c.26-1.06.41-2.16.41-3.3-0-7.81-6.35-14.16-14.15-14.16s-14.16 6.35-14.16 14.16 6.35 14.15 14.16 14.15c2.28 0 4.43-.56 6.34-1.52v26.11c0 2.96 2.41 5.37 5.37 5.37h23.63c2.96 0 5.37-2.41 5.37-5.37v-34.37c0-.59-.48-1.07-1.07-1.07zm-32.21 0c-.59 0-1.07.48-1.07 1.07v5.97c-1.85 1.14-4.01 1.81-6.34 1.81-6.7 0-12.16-5.45-12.16-12.15s5.45-12.16 12.16-12.16 12.15 5.45 12.15 12.16c0 1.14-.17 2.25-.47 3.3h-4.28zm31.14 35.43c0 1.78-1.45 3.22-3.22 3.22h-23.63c-1.78 0-3.22-1.45-3.22-3.22v-18.21c6.13.12 11.32 1.17 16.31 2.23 4.59.97 8.96 1.85 13.75 1.98v14.01zm0-16.15c-4.59-.13-8.84-.99-13.31-1.93-5.1-1.08-10.41-2.16-16.76-2.27v-6.49h30.07zm0-12.84h-30.07v-4.3h30.07z"/><path d="m30.16 41.08h-2.15c-.59 0-1.07.48-1.07 1.07s.48 1.07 1.07 1.07h2.15c.59 0 1.07-.48 1.07-1.07s-.48-1.07-1.07-1.07z"/><path d="m34.45 47.52h-2.15c-.59 0-1.07.48-1.07 1.07s.48 1.07 1.07 1.07h2.15c.59 0 1.07-.48 1.07-1.07s-.48-1.07-1.07-1.07z"/><path d="m40.9 45.38h2.15c.59 0 1.07-.48 1.07-1.07s-.48-1.07-1.07-1.07h-2.15c-.59 0-1.07.48-1.07 1.07s.48 1.07 1.07 1.07z"/><path d="m45.19 51.82h2.15c.59 0 1.07-.48 1.07-1.07s-.48-1.07-1.07-1.07h-2.15c-.59 0-1.07.48-1.07 1.07s.48 1.07 1.07 1.07z"/><path d="m17.77 10.54c-.39-.39-1.02-.39-1.41 0l-2.21 2.21-2.21-2.21c-.39-.39-1.02-.39-1.41 0s-.39 1.02 0 1.41l2.21 2.21-2.21 2.21c-.39.39-.39 1.02 0 1.41.2.2.45.29.71.29s.51-.1.71-.29l2.21-2.21 2.21 2.21c.2.2.45.29.71.29s.51-.1.71-.29c.39-.39.39-1.02 0-1.41l-2.21-2.21 2.21-2.21c.39-.39.39-1.02 0-1.41z"/></g></svg>