<svg viewBox="0 0 55.97 49.99" xmlns="http://www.w3.org/2000/svg"><g fill="#949b76"><path d="m51.2 4.71c-6.4-6.31-16.84-6.28-23.2.07-10.02-10.14-28.09-3.03-28 11.34 0 4.31 1.7 8.36 4.8 11.41l22.5 22.17c.39.38 1.01.38 1.4 0l22.5-22.17c6.35-6.01 6.36-16.82 0-22.83zm-1.4 21.4-21.8 21.47-21.8-21.47c-2.71-2.67-4.2-6.22-4.2-9.99-.07-12.57 15.72-18.8 24.52-9.98.58.58 1.34 1.55 2.18.76 13.55-14.03 34.43 4.66 21.1 19.21z"/><path d="m52.2 15.26c-.63-1.67-2.63-2.27-4.16-2.8l.7-1.85c1.74-5-5.59-7.66-7.56-2.8 0 0-.71 1.87-.71 1.87l-1.9-.7c-5.02-1.72-7.78 5.46-2.82 7.47 0 0 1.89.7 1.89.7l-.7 1.85c-1.72 4.99 5.56 7.68 7.55 2.8 0 0 .71-1.87.71-1.87l1.91.7c2 .79 4.47-.3 5.19-2.34.38-.99.34-2.07-.1-3.04zm-15.76-.69c-2.09-.74-1.49-3.88.71-3.85.53-.05 2.1.68 2.61.83l-1.41 3.72zm5.12 7.64c-1.54.77-3.42-.88-2.75-2.5 1.18-3.1 3.08-8.11 4.25-11.19.95-2.42 4.7-1.12 3.82 1.38-.73 1.9-2.49 6.55-3.2 8.39 0 0-1.06 2.8-1.07 2.81-.18.49-.56.88-1.05 1.11zm8.87-4.62c-.37 1.03-1.62 1.57-2.63 1.17 0 0-1.89-.7-1.89-.7.3-.78 1.13-2.98 1.42-3.73l1.91.7c1.02.35 1.59 1.55 1.19 2.55z"/><path d="m19.48 34.34c-.93-.92-2.34.48-1.41 1.41 0 0 3.55 3.55 3.55 3.55.93.92 2.34-.49 1.41-1.41 0 0-3.55-3.55-3.55-3.55z"/><path d="m25.16 40.02c-.93-.92-2.34.49-1.41 1.41.43.33 1.5 1.8 2.13 1.71.85.03 1.35-1.11.71-1.71 0 0-1.42-1.42-1.42-1.42z"/><path d="m28.71 43.56c-.94-.88-2.33.47-1.42 1.41.9.94 2.34-.5 1.42-1.41z"/><path d="m15.76 3.83c-5.83.56-10.79 5.36-11.41 11.18-.07.55.32 1.05.87 1.11.54.07 1.05-.32 1.11-.87.52-4.92 4.72-8.96 9.64-9.43 1.29-.15 1.08-2.12-.22-1.99z"/></g></svg>