<svg viewBox="0 0 58.79 60.71" xmlns="http://www.w3.org/2000/svg"><g fill="#949b76"><path d="m41.6 51.91h-36.2c-.55 0-1-.45-1-1v-33.77c0-3.67 2.99-6.66 6.66-6.66h24.88c3.67 0 6.66 2.99 6.66 6.66v33.77c0 .55-.45 1-1 1zm-35.2-2h34.2v-32.77c0-2.57-2.09-4.66-4.66-4.66h-24.88c-2.57 0-4.66 2.09-4.66 4.66z"/><path d="m44.68 35.18h-3.08c-.55 0-1-.45-1-1v-9.78c0-.55.45-1 1-1h3.08c1.87 0 3.4 1.52 3.4 3.4v4.99c0 1.87-1.52 3.4-3.4 3.4zm-2.08-2h2.08c.77 0 1.4-.63 1.4-1.4v-4.99c0-.77-.63-1.4-1.4-1.4h-2.08v7.78z"/><path d="m55.42 19.72h-1.01c-1.86 0-3.38-1.51-3.38-3.38v-2.49c0-1.86 1.51-3.38 3.38-3.38h1.01c1.86 0 3.38 1.51 3.38 3.38v2.49c0 1.86-1.51 3.38-3.38 3.38zm-1.01-7.24c-.76 0-1.38.62-1.38 1.38v2.49c0 .76.62 1.38 1.38 1.38h1.01c.76 0 1.38-.62 1.38-1.38v-2.49c0-.76-.62-1.38-1.38-1.38z"/><path d="m52.54 30.29h-5.46c-.55 0-1-.45-1-1s.45-1 1-1h5.46c.76 0 1.38-.62 1.38-1.38v-8.19c0-.55.45-1 1-1s1 .45 1 1v8.19c0 1.86-1.51 3.38-3.38 3.38z"/><path d="m46 60.71h-45c-.55 0-1-.45-1-1v-5.4c0-2.43 1.98-4.41 4.41-4.41h38.19c2.43 0 4.41 1.98 4.41 4.41v5.4c0 .55-.45 1-1 1zm-44-2h43v-4.4c0-1.33-1.08-2.41-2.41-2.41h-38.18c-1.33 0-2.41 1.08-2.41 2.41z"/><path d="m33.74 12.48h-20.48c-.55 0-1-.45-1-1v-.24c0-6.2 5.04-11.24 11.24-11.24s11.24 5.04 11.24 11.24v.24c0 .55-.45 1-1 1zm-19.45-2h18.42c-.39-4.74-4.37-8.48-9.21-8.48s-8.82 3.74-9.21 8.48z"/><path d="m27.02 7.8h-7.04c-.55 0-1-.45-1-1s.45-1 1-1h7.04c.55 0 1 .45 1 1s-.45 1-1 1z"/><path d="m34.23 36.81h-21.46c-1.65 0-2.99-1.34-2.99-2.99v-9.93c0-1.65 1.34-2.99 2.99-2.99h21.45c1.65 0 2.99 1.34 2.99 2.99v9.93c0 1.65-1.34 2.99-2.99 2.99zm-21.46-13.91c-.55 0-.99.45-.99.99v9.93c0 .55.44.99.99.99h21.45c.55 0 .99-.44.99-.99v-9.93c0-.55-.44-.99-.99-.99z"/><path d="m27.83 36.81h-8.66c-.55 0-1-.45-1-1v-13.91c0-.55.45-1 1-1h8.66c.55 0 1 .45 1 1v13.91c0 .55-.45 1-1 1zm-7.66-2h6.66v-11.91h-6.66z"/><path d="m13.26 47.44c-2.25 0-4.08-1.83-4.08-4.08s1.83-4.08 4.08-4.08 4.08 1.83 4.08 4.08-1.83 4.08-4.08 4.08zm0-6.16c-1.15 0-2.08.93-2.08 2.08s.93 2.08 2.08 2.08 2.08-.93 2.08-2.08-.93-2.08-2.08-2.08z"/><path d="m33.74 47.44c-2.25 0-4.08-1.83-4.08-4.08s1.83-4.08 4.08-4.08 4.08 1.83 4.08 4.08-1.83 4.08-4.08 4.08zm0-6.16c-1.15 0-2.08.93-2.08 2.08s.93 2.08 2.08 2.08 2.08-.93 2.08-2.08-.93-2.08-2.08-2.08z"/><path d="m23.5 47.44c-2.25 0-4.08-1.83-4.08-4.08s1.83-4.08 4.08-4.08 4.08 1.83 4.08 4.08-1.83 4.08-4.08 4.08zm0-6.16c-1.15 0-2.08.93-2.08 2.08s.93 2.08 2.08 2.08 2.08-.93 2.08-2.08-.93-2.08-2.08-2.08z"/></g></svg>