<svg viewBox="0 0 61.73 61.94" xmlns="http://www.w3.org/2000/svg"><g fill="#949b76"><path d="m13.32 61.94c-.55 0-1-.45-1-1v-3.05c0-.72-.36-1.4-.96-1.8l-5.18-3.45c-2.07-1.38-3.48-3.59-3.86-6.05l-2.28-14.8c-.28-1.82.79-3.56 2.53-4.14 1.93-.64 4 .34 4.72 2.25l3.81 10.15c.19.52-.07 1.09-.58 1.29-.52.19-1.09-.07-1.29-.59l-3.81-10.15c-.33-.89-1.31-1.36-2.21-1.05-.82.27-1.32 1.09-1.19 1.94l2.28 14.8c.29 1.91 1.39 3.62 2.99 4.69l5.18 3.45c1.16.77 1.85 2.07 1.85 3.46v3.05c0 .55-.45 1-1 1z"/><path d="m24.38 61.94c-.55 0-1-.45-1-1v-8.01c0-1.31-.32-2.5-.93-3.46-.49-.76-1.1-1.42-1.82-1.95-.83-.61-1.66-1.02-2.47-1.23-1.26-.33-2.31-1-3.03-1.96l-2-2.64c-.87-.76-2.2-.71-3 .14-.82.87-.78 2.24.09 3.05.03.03.06.06.08.09l3.79 4.54c.35.42.3 1.06-.13 1.41-.42.35-1.05.3-1.41-.13l-3.75-4.5c-1.62-1.58-1.68-4.19-.12-5.84 1.58-1.67 4.21-1.74 5.88-.17.04.04.08.08.11.12l2.05 2.71c.45.59 1.12 1.02 1.94 1.23 1.05.27 2.11.79 3.15 1.55.93.68 1.71 1.51 2.33 2.49.81 1.28 1.24 2.84 1.24 4.53v8.01c0 .55-.45 1-1 1z"/><path d="m48.41 61.94c-.55 0-1-.45-1-1v-3.05c0-1.39.69-2.69 1.85-3.46l5.18-3.45c1.61-1.07 2.7-2.78 2.99-4.69l2.28-14.8c.13-.85-.37-1.67-1.19-1.94-.9-.3-1.87.16-2.21 1.05l-3.81 10.15c-.19.52-.77.78-1.29.59s-.78-.77-.58-1.29l3.81-10.15c.71-1.91 2.78-2.9 4.72-2.25 1.75.58 2.81 2.33 2.53 4.14l-2.28 14.8c-.38 2.46-1.79 4.67-3.86 6.05l-5.18 3.45c-.6.4-.96 1.07-.96 1.8v3.05c0 .55-.45 1-1 1z"/><path d="m37.35 61.94c-.55 0-1-.45-1-1v-8.01c0-1.69.43-3.26 1.24-4.53.62-.97 1.4-1.81 2.33-2.49 1.04-.76 2.1-1.28 3.15-1.55.82-.21 1.49-.64 1.94-1.23l2.05-2.71s.07-.09.11-.12c1.67-1.58 4.31-1.5 5.88.17 1.56 1.65 1.5 4.26-.12 5.84l-3.75 4.5c-.35.42-.98.48-1.41.13-.42-.35-.48-.98-.13-1.41l3.79-4.54s.05-.06.08-.09c.87-.82.9-2.19.09-3.05-.8-.85-2.13-.9-3-.14l-2 2.64c-.72.96-1.77 1.63-3.03 1.96-.8.21-1.64.62-2.47 1.23-.72.53-1.33 1.18-1.82 1.94-.61.96-.93 2.15-.93 3.46v8.01c0 .55-.45 1-1 1z"/><path d="m14.73 15.31c-.3 0-.6-.14-.8-.4-.33-.44-.24-1.07.2-1.4.61-.46 1.27-.83 1.97-1.12.51-.21 1.09.03 1.31.54.21.51-.03 1.1-.54 1.31-.54.22-1.06.52-1.53.87-.18.14-.39.2-.6.2z"/><path d="m16.48 29.08c-.13 0-.26-.02-.38-.08-.99-.41-1.9-.99-2.68-1.72-.41-.38-.43-1.01-.05-1.41s1.01-.43 1.41-.05c.61.57 1.32 1.02 2.09 1.34.51.21.75.79.54 1.31-.16.39-.53.62-.92.62z"/><path d="m18.99 37.14c-.55 0-1-.45-1-1s.45-1 1-1c.94 0 1.84-.3 2.59-.86.44-.33 1.07-.24 1.4.2s.24 1.07-.2 1.4c-1.1.83-2.41 1.26-3.79 1.26z"/><path d="m22.18 7.33c-.21 0-.42-.07-.6-.2-.75-.56-1.65-.86-2.59-.86-.55 0-1-.45-1-1s.45-1 1-1c1.38 0 2.69.44 3.79 1.27.44.33.53.96.2 1.4-.2.26-.5.4-.8.4z"/><path d="m25.38 41.39c-2.72 0-5.1-1.75-5.97-4.27-.13.01-.27.02-.41.02-3.49 0-6.33-2.84-6.33-6.33 0-1.19.34-2.34.97-3.34-.04-.03-.07-.06-.11-.1l-.11-.1c-1.86-1.73-2.88-4.06-2.88-6.58s1.15-5.09 3.1-6.79c-.63-1-.97-2.15-.97-3.33 0-3.62 3.05-6.58 6.73-6.31.86-2.53 3.24-4.28 5.97-4.28 3.49 0 6.33 2.84 6.33 6.33v5.41c0 .55-.45 1-1 1s-1-.45-1-1v-5.41c0-2.38-1.94-4.33-4.33-4.33-2.09 0-3.88 1.5-4.25 3.57l-.18 1.01-1.01-.21c-.34-.07-.65-.11-.95-.11-2.38 0-4.33 1.94-4.33 4.33 0 1.04.39 2.05 1.1 2.84l.63.71-.46.46v.09l-.35.25-.22.22h-.08c-1.73 1.32-2.76 3.38-2.76 5.56 0 1.95.8 3.77 2.24 5.11l.08.07s.08.07.12.1l.09.07c.15.14.27.23.37.29l.15.11 1.06.53-.88.98c-.71.79-1.1 1.81-1.1 2.85 0 2.39 1.94 4.33 4.33 4.33.32 0 .65-.06.95-.12l1.2-.25v1.15c.41 2.02 2.18 3.47 4.23 3.47 2.39 0 4.33-1.94 4.33-4.33v-3.16c0-.55.45-1 1-1s1 .45 1 1v3.16c0 3.49-2.84 6.33-6.33 6.33z"/><path d="m46.67 15.31c-.21 0-.42-.07-.6-.2-.47-.35-.99-.65-1.53-.87-.51-.21-.75-.8-.54-1.31s.8-.75 1.31-.54c.7.29 1.36.67 1.97 1.12.44.33.53.96.2 1.4-.2.26-.5.4-.8.4z"/><path d="m44.92 29.08c-.39 0-.77-.23-.92-.62-.21-.51.03-1.1.54-1.31.77-.32 1.47-.77 2.09-1.34.4-.38 1.04-.35 1.41.05.38.41.35 1.04-.05 1.41-.79.73-1.69 1.31-2.68 1.72-.12.05-.25.08-.38.08z"/><path d="m42.41 37.14c-1.38 0-2.69-.44-3.79-1.26-.44-.33-.53-.96-.2-1.4s.96-.53 1.4-.2c.75.56 1.65.86 2.59.86.55 0 1 .45 1 1s-.45 1-1 1z"/><path d="m39.22 7.33c-.3 0-.6-.14-.8-.4-.33-.44-.24-1.07.2-1.4 1.1-.83 2.41-1.27 3.79-1.27.55 0 1 .45 1 1s-.45 1-1 1c-.94 0-1.84.3-2.59.86-.18.14-.39.2-.6.2z"/><path d="m36.03 41.39c-3.49 0-6.33-2.84-6.33-6.33v-3.16c0-.55.45-1 1-1s1 .45 1 1v3.16c0 2.38 1.94 4.33 4.33 4.33 2.05 0 3.82-1.46 4.23-3.47v-1.13l1.2.24c.3.06.63.12.95.12 2.38 0 4.33-1.94 4.33-4.33 0-1.05-.39-2.06-1.1-2.85l-.88-.98 1.21-.64c.1-.06.22-.15.37-.29l.09-.07s.08-.07.12-.1l.12-.11c1.4-1.31 2.2-3.12 2.2-5.08 0-2.18-1.03-4.24-2.76-5.56h-.08l-.22-.22-.35-.25v-.08l-.48-.45.65-.73c.71-.79 1.1-1.8 1.1-2.84 0-2.38-1.94-4.33-4.33-4.33-.3 0-.61.03-.95.11l-1.01.21-.18-1.02c-.37-2.07-2.15-3.57-4.25-3.57-2.38 0-4.33 1.94-4.33 4.33v5.41c0 .55-.45 1-1 1s-1-.45-1-1v-5.41c0-3.49 2.84-6.33 6.33-6.33 2.74 0 5.12 1.75 5.97 4.28 3.67-.27 6.73 2.69 6.73 6.31 0 1.18-.34 2.33-.97 3.33 1.96 1.7 3.1 4.17 3.1 6.79s-1.02 4.85-2.88 6.58l-.11.1s-.07.06-.11.1c.63 1 .97 2.15.97 3.34 0 3.49-2.84 6.33-6.33 6.33-.14 0-.28 0-.41-.02-.87 2.52-3.25 4.27-5.97 4.27z"/><path d="m30.7 27.55h-.01c-.46 0-.85-.32-.96-.77l-2.43-10.17-1.32 3.31c-.15.38-.52.63-.93.63h-6.45c-.55 0-1-.45-1-1s.45-1 1-1h5.78l2.24-5.61c.16-.4.55-.66 1-.63.44.03.8.34.9.77l2.25 9.41.86-3.2c.12-.44.51-.74.97-.74h8.91c.55 0 1 .45 1 1s-.45 1-1 1h-8.15l-1.68 6.27c-.12.44-.51.74-.97.74z"/></g></svg>