<svg viewBox="0 0 60.16 56.96" xmlns="http://www.w3.org/2000/svg"><g fill="#949b76"><path d="m56.06 0h-51.96c-2.26 0-4.1 1.84-4.1 4.1v48.76c0 2.26 1.84 4.1 4.1 4.1h51.96c2.26 0 4.1-1.84 4.1-4.1v-48.76c0-2.26-1.84-4.1-4.1-4.1zm-51.96 2h51.96c1.16 0 2.1.94 2.1 2.1v7.06h-56.16v-7.06c0-1.16.94-2.1 2.1-2.1zm51.96 52.96h-51.96c-1.16 0-2.1-.94-2.1-2.1v-39.7h56.16v39.7c0 1.16-.94 2.1-2.1 2.1z"/><path d="m42.77 37.35c.32-1.26.48-2.55.48-3.85 0-8.63-7.02-15.66-15.66-15.66s-15.66 7.02-15.66 15.66 7.02 15.65 15.66 15.65c2.64 0 5.21-.66 7.51-1.92.32.64.75 1.25 1.29 1.79 1.35 1.35 3.12 2.03 4.9 2.03s3.55-.68 4.9-2.03c2.7-2.7 2.7-7.1 0-9.8-.97-.97-2.17-1.59-3.42-1.86zm-15.17 9.8c-7.53 0-13.66-6.12-13.66-13.65s6.13-13.66 13.66-13.66 13.66 6.13 13.66 13.66c0 1.26-.18 2.51-.53 3.71-1.58.13-3.13.79-4.34 2-1.65 1.65-2.29 3.93-1.92 6.07-2.08 1.22-4.44 1.87-6.87 1.87zm17.18.45c-1.92 1.92-5.05 1.92-6.97 0s-1.92-5.05 0-6.97c.96-.96 2.22-1.44 3.49-1.44s2.52.48 3.49 1.44c1.92 1.92 1.92 5.05 0 6.97z"/><path d="m43.65 41.75c-.39-.39-1.02-.39-1.41 0l-.94.94-.94-.94c-.39-.39-1.02-.39-1.41 0s-.39 1.02 0 1.41l.94.94-.94.94c-.39.39-.39 1.02 0 1.41.2.2.45.29.71.29s.51-.1.71-.29l.94-.94.94.94c.2.2.45.29.71.29s.51-.1.71-.29c.39-.39.39-1.02 0-1.41l-.94-.94.94-.94c.39-.39.39-1.02 0-1.41z"/><path d="m28.65 30.06h-1.48c-1.51 0-2.73 1.23-2.73 2.73v1.48c0 .64.23 1.22.6 1.68-.37.47-.6 1.04-.6 1.68v1.48c0 1.51 1.23 2.73 2.73 2.73h1.48c1.51 0 2.73-1.23 2.73-2.73v-1.48c0-.64-.23-1.22-.6-1.68.37-.47.6-1.04.6-1.68v-1.48c0-1.51-1.23-2.73-2.73-2.73zm-2.21 2.73c0-.4.33-.73.73-.73h1.48c.4 0 .73.33.73.73v1.48c0 .3-.18.55-.43.66-.1-.01-.2-.03-.3-.03h-1.48c-.1 0-.2.02-.3.03-.25-.12-.43-.37-.43-.66zm2.94 6.33c0 .4-.33.73-.73.73h-1.48c-.4 0-.73-.33-.73-.73v-1.48c0-.3.18-.55.43-.66.1.01.2.03.3.03h1.48c.1 0 .2-.02.3-.03.25.12.43.37.43.66z"/><path d="m21.24 30.06c-.55 0-1 .45-1 1v9.79c0 .55.45 1 1 1s1-.45 1-1v-9.79c0-.55-.45-1-1-1z"/><path d="m35.36 29.26c.55 0 1-.45 1-1s-.45-1-1-1h-1.13v-1.13c0-.55-.45-1-1-1s-1 .45-1 1v1.13h-1.13c-.55 0-1 .45-1 1s.45 1 1 1h1.13v1.13c0 .55.45 1 1 1s1-.45 1-1v-1.13z"/><path d="m43.47 7.66h2.93c.55 0 1-.45 1-1s-.45-1-1-1h-2.93c-.55 0-1 .45-1 1s.45 1 1 1z"/><path d="m50.4 7.66h2.93c.55 0 1-.45 1-1s-.45-1-1-1h-2.93c-.55 0-1 .45-1 1s.45 1 1 1z"/><path d="m8.03 7.66h19.88c.55 0 1-.45 1-1s-.45-1-1-1h-19.88c-.55 0-1 .45-1 1s.45 1 1 1z"/></g></svg>