<svg viewBox="0 0 52.08 55.12" xmlns="http://www.w3.org/2000/svg"><g fill="#949b76"><path d="m11.5 39.39h-3.5c-.55 0-1 .45-1 1s.45 1 1 1h3.5c.55 0 1-.45 1-1s-.45-1-1-1z"/><path d="m8 18.98h11.28c.55 0 1-.45 1-1s-.45-1-1-1h-11.28c-.55 0-1 .45-1 1s.45 1 1 1z"/><path d="m8 11.51h7c.55 0 1-.45 1-1s-.45-1-1-1h-7c-.55 0-1 .45-1 1s.45 1 1 1z"/><path d="m37.95 18.63v-4.9c0-.13-.03-.26-.08-.38s-.12-.23-.22-.32l-12.73-12.74c-.09-.09-.2-.17-.32-.22s-.25-.08-.38-.08h-23.22c-.55.01-1 .46-1 1.01v47.14c0 .55.45 1 1 1h18.76c.07 0 .13-.03.19-.04 3.39 3.68 8.23 6.01 13.62 6.01 10.21 0 18.52-8.31 18.52-18.52 0-8.7-6.04-15.99-14.13-17.97zm-12.73-15.22 9.32 9.32h-9.32zm-23.22 43.73v-45.14h21.22v11.73c0 .55.45 1 1 1h11.73v3.52c-.78-.1-1.57-.17-2.38-.17-5.59 0-10.6 2.5-13.99 6.43-.09-.03-.18-.06-.28-.06h-11.28c-.55 0-1 .45-1 1s.45 1 1 1h10.09c-1.09 1.66-1.91 3.5-2.42 5.47h-7.67c-.55 0-1 .45-1 1s.45 1 1 1h7.26c-.13.88-.22 1.77-.22 2.68 0 3.92 1.23 7.55 3.32 10.54zm31.56 5.98c-9.11 0-16.52-7.41-16.52-16.52s7.41-16.52 16.52-16.52c.99 0 1.95.1 2.9.27.15.08.31.14.49.14.05 0 .09-.02.14-.03 7.42 1.62 13 8.23 13 16.13 0 9.11-7.41 16.52-16.52 16.52z"/><path d="m46.92 41.37c-.08-.29-.3-.53-.59-.62-1.87-.61-3.82-.83-5.74-.66 2.2-2.03 4.42-5 4.91-8.92.04-.31-.09-.63-.34-.82-.25-.2-.58-.24-.88-.13-3.49 1.35-5.87 3.25-7.46 5.05.31-4.07-.53-8.16-2.46-11.84-.31-.59-1.28-.59-1.59 0-1.93 3.68-2.77 7.78-2.46 11.85-1.6-1.8-3.97-3.71-7.47-5.06-.3-.11-.63-.07-.88.13s-.38.51-.34.82c.49 3.93 2.71 6.89 4.91 8.92-1.92-.17-3.87.05-5.74.66-.29.09-.51.33-.59.62s0 .61.2.83c2.7 3.04 8.25 3.94 11.52 3.94.27 0 .51 0 .74-.02v3.49c0 .5.4.9.9.9s.9-.4.9-.9v-3.49c3.1.15 9.34-.64 12.25-3.92.2-.23.28-.54.2-.83zm-13.2 2.88s-.06 0-.09 0c-.02 0-.04-.01-.06-.01s-.04.01-.06.01c-.03 0-.06 0-.09 0-1.61.27-7.21.02-10.46-2.2 2.52-.48 5.12-.17 7.48.89.44.2.95.02 1.17-.41s.06-.95-.35-1.19c-1.91-1.1-6.17-4.03-7.52-8.77 4.49 2.19 6.53 5.34 7.38 7.14.2.42.69.62 1.13.46s.68-.64.55-1.09c-1.22-4.37-.95-8.96.77-13.11 1.71 4.15 1.99 8.74.77 13.11-.13.45.11.92.55 1.09.44.16.93-.04 1.13-.46.84-1.79 2.88-4.94 7.37-7.13-1.35 4.75-5.61 7.67-7.52 8.77-.42.24-.57.76-.35 1.19s.73.61 1.17.41c2.36-1.06 4.97-1.37 7.48-.89-3.25 2.21-8.84 2.47-10.45 2.2z"/></g></svg>