<svg viewBox="0 0 50 60" xmlns="http://www.w3.org/2000/svg"><g fill="#949b76"><path d="m30.33 60c-.55 0-1-.45-1-1v-4.66c0-1.06.89-1.93 1.98-1.93h3.54c.72 0 1.38-.24 1.88-.67.43-.37.84-.79 1.26-1.29.35-.42.99-.48 1.41-.12s.48.99.12 1.41c-.49.58-.97 1.07-1.48 1.51-.86.75-2 1.16-3.19 1.16h-3.54l.02 4.59c0 .55-.45 1-1 1z"/><path d="m49.63 35.54-4.26-5.87c-.39-.53-.56-1.19-.49-1.85.09-.74.14-1.53.14-2.35l-.02-4.98s0 0 0 0c0-2.42-1.93-4.62-5.57-6.35-.5-.24-1.1-.02-1.33.47-.24.5-.02 1.1.47 1.33 2.86 1.35 4.43 2.97 4.43 4.55 0 2.93-5.33 5.79-12.97 6.94-.21.04-.44.07-.66.1 0 0-.02 0-.03 0-.02 0-.05 0-.07 0-2.19.29-4.47.44-6.77.44-1.55 0-3.03-.06-4.41-.19-.55-.05-1.04.36-1.09.91s.36 1.04.91 1.09c1.44.13 2.98.19 4.59.19 2.38 0 4.75-.15 7.02-.46.03 0 .06 0 .09-.01.26-.03.51-.07.73-.11 5.87-.89 10.29-2.65 12.67-4.9v.96c0 .73-.04 1.44-.12 2.11-.13 1.17.18 2.33.86 3.26l4.17 5.74h-3.9c-.52 0-.95.4-1 .91 0 .05-.47 5.15-2.88 9.73-.26.49-.07 1.09.42 1.35.15.08.31.12.46.12.36 0 .71-.19.89-.53 1.99-3.79 2.74-7.81 2.99-9.58h3.11c.76 0 1.44-.41 1.77-1.08.32-.64.26-1.4-.16-1.97z"/><path d="m14.17 27.32c-7.16-1.22-12.17-4.02-12.17-6.82 0-1.75 1.96-3.55 5.38-4.95.51-.21.76-.79.55-1.3s-.79-.76-1.3-.55c-4.27 1.75-6.62 4.17-6.62 6.81v4.98c0 3.44.88 6.87 2.54 9.92 0 .02.02.03.02.05l5.61 10.57c1.52 2.87 1.45 6.25-.18 9.06l-1.99 3.42c-.28.48-.12 1.09.36 1.37.16.09.33.14.5.14.34 0 .68-.18.86-.5l1.99-3.42c1.99-3.41 2.07-7.52.22-11.01l-5.58-10.51s-.02-.05-.04-.07c-1.54-2.81-2.33-5.84-2.33-9.01v-.96c2.28 2.14 6.39 3.85 11.83 4.78.06 0 .11.01.17.01.48 0 .9-.34.98-.83.09-.54-.27-1.06-.82-1.15z"/><path d="m25.4 26h-4.8c-.55 0-1-.45-1-1v-1.97c-.44-.15-.87-.33-1.29-.53l-1.39 1.39c-.39.39-1.02.39-1.41 0l-3.39-3.39c-.19-.19-.29-.44-.29-.71s.11-.52.29-.71l1.39-1.39c-.21-.42-.38-.85-.53-1.29h-1.97c-.55 0-1-.45-1-1v-4.8c0-.55.45-1 1-1h1.97c.15-.44.33-.87.53-1.29l-1.39-1.39c-.19-.19-.29-.44-.29-.71s.11-.52.29-.71l3.39-3.39c.39-.39 1.02-.39 1.41 0l1.39 1.39c.42-.21.85-.38 1.29-.53v-1.97c0-.55.45-1 1-1h4.8c.55 0 1 .45 1 1v1.97c.44.15.87.33 1.29.53l1.39-1.39c.39-.39 1.02-.39 1.41 0l3.39 3.39c.19.19.29.44.29.71s-.11.52-.29.71l-1.39 1.39c.21.42.38.85.53 1.29h1.97c.55 0 1 .45 1 1v4.8c0 .55-.45 1-1 1h-1.97c-.15.44-.33.87-.53 1.29l1.39 1.39c.19.19.29.44.29.71s-.11.52-.29.71l-3.39 3.39c-.39.39-1.02.39-1.41 0l-1.39-1.39c-.42.21-.85.38-1.29.53v1.97c0 .55-.45 1-1 1zm-3.8-2h2.8v-1.71c0-.46.31-.85.75-.97.78-.2 1.52-.51 2.21-.92.39-.23.89-.17 1.22.15l1.21 1.21 1.98-1.98-1.21-1.21c-.32-.32-.39-.82-.15-1.22.41-.69.71-1.43.92-2.21.11-.44.51-.75.97-.75h1.71v-2.8h-1.71c-.46 0-.85-.31-.97-.75-.2-.78-.51-1.52-.92-2.21-.23-.39-.17-.89.15-1.22l1.21-1.21-1.98-1.98-1.21 1.21c-.32.32-.82.39-1.22.15-.69-.41-1.43-.71-2.21-.92-.44-.11-.75-.51-.75-.97v-1.71h-2.8v1.71c0 .46-.31.85-.75.97-.78.2-1.52.51-2.21.91-.39.23-.89.17-1.22-.15l-1.21-1.21-1.98 1.98 1.21 1.21c.32.32.39.82.15 1.22-.41.69-.71 1.43-.92 2.21-.11.44-.51.75-.97.75h-1.71v2.8h1.71c.46 0 .85.31.97.75.2.78.51 1.52.92 2.21.23.39.17.89-.15 1.22l-1.21 1.21 1.98 1.98 1.21-1.21c.32-.32.82-.39 1.22-.15.69.41 1.43.71 2.21.91.44.11.75.51.75.97v1.71z"/><path d="m23 19c-3.31 0-6-2.69-6-6s2.69-6 6-6 6 2.69 6 6-2.69 6-6 6zm0-10c-2.21 0-4 1.79-4 4s1.79 4 4 4 4-1.79 4-4-1.79-4-4-4z"/></g></svg>