<svg viewBox="0 0 54.05 57.17" xmlns="http://www.w3.org/2000/svg"><g fill="#949b76"><path d="m46.93 31.87c-.19 0-.38-.05-.55-.17-.46-.31-.58-.93-.28-1.39l.44-.65c.79-1.19 2.11-1.86 3.43-1.73.69.06 1.38-.25 1.76-.84.28-.42.38-.93.28-1.43s-.39-.93-.81-1.21c-.87-.58-2.05-.35-2.64.53-.31.46-.93.58-1.39.28-.46-.31-.58-.93-.28-1.39.58-.87 1.46-1.46 2.48-1.66s2.06 0 2.93.58 1.46 1.46 1.66 2.48 0 2.06-.58 2.93c-.8 1.2-2.17 1.86-3.62 1.72-.59-.05-1.2.28-1.58.85l-.44.65c-.19.29-.51.44-.83.44z"/><path d="m43.71 36.7c-.19 0-.38-.05-.55-.17-.46-.31-.58-.93-.28-1.39l.81-1.21c.31-.46.93-.58 1.39-.28.46.31.58.93.28 1.39l-.81 1.21c-.19.29-.51.45-.83.45z"/><path d="m5.9 29.31c-.32 0-.63-.15-.83-.44l-4.9-7.19c-.31-.46-.19-1.08.26-1.39.46-.31 1.08-.19 1.39.26l4.9 7.19c.31.46.19 1.08-.26 1.39-.17.12-.37.17-.56.17z"/><path d="m9.17 34.1c-.32 0-.63-.15-.83-.44l-.82-1.2c-.31-.46-.19-1.08.26-1.39.46-.31 1.08-.19 1.39.26l.82 1.2c.31.46.19 1.08-.26 1.39-.17.12-.37.17-.56.17z"/><path d="m40.17 57.17c-.37 0-.72-.21-.9-.56-1.53-3.13-4.65-5.09-8.13-5.13-.55 0-1-.46-.99-1.01 0-.55.45-.99 1-.99h.01c4.24.04 8.04 2.44 9.91 6.25.24.5.04 1.09-.46 1.34-.14.07-.29.1-.44.1z"/><path d="m13.43 57.17c-.15 0-.3-.03-.44-.1-.5-.24-.7-.84-.46-1.34 1.87-3.81 5.67-6.2 9.91-6.25h.01c.55 0 .99.44 1 .99 0 .55-.44 1-.99 1.01-3.48.04-6.6 2-8.13 5.13-.17.35-.53.56-.9.56z"/><path d="m31.15 51.49c-.55 0-1-.45-1-1v-2.57c-.11-.16-.17-.35-.17-.56 0-.55.45-1 1-1h.17c.55 0 1 .45 1 1v3.13c0 .55-.45 1-1 1z"/><path d="m22.45 51.49c-.55 0-1-.45-1-1v-3.13c0-.55.45-1 1-1s1.04.45 1.04 1c0 .1-.01.19-.04.28v2.86c0 .55-.45 1-1 1z"/><path d="m26.74 49.39c-.42 0-.82-.02-1.17-.07-1.25-.14-2.44-.51-3.52-1.08-2.61-1.36-4.51-3.87-5.08-6.72l-.2-1.07c-1.59-.47-2.72-1.92-2.72-3.65 0-1.27.63-2.44 1.65-3.14-.03-.7 0-1.4.12-2.08.09-.54.6-.92 1.14-.83.55.09.92.6.83 1.14-.11.72-.13 1.46-.05 2.22.05.43-.2.85-.59 1.02-.67.29-1.1.94-1.1 1.67 0 .95.71 1.73 1.66 1.8.45.04.83.38.9.82l.32 1.71c.45 2.25 1.97 4.25 4.05 5.34.87.46 1.81.75 2.83.87.65.08 1.24.08 1.87 0 1.02-.12 1.97-.41 2.83-.86 2.08-1.08 3.58-3.08 4.04-5.35l.31-1.68c.07-.47.47-.83.95-.84.97-.04 1.74-.83 1.74-1.8 0-.73-.47-1.41-1.16-1.68-.42-.16-.68-.59-.63-1.04.08-.76.06-1.49-.05-2.19-.09-.54.28-1.06.83-1.15s1.06.28 1.15.83c.11.65.14 1.33.12 2.03 1.07.69 1.75 1.9 1.75 3.19 0 1.76-1.19 3.24-2.82 3.67l-.21 1.06c-.58 2.85-2.47 5.36-5.07 6.72-1.08.57-2.26.93-3.53 1.08-.36.04-.75.06-1.17.06z"/><path d="m37.25 32.74h-1.78c-2.48 0-4.85-1.18-6.35-3.15l-.29-.38c-1.96 2.24-4.79 3.54-7.81 3.54h-4.73c-.48 0-.9-.34-.98-.82-.64-3.5.63-7.09 3.33-9.36 2.78-2.34 6.73-2.95 10.13-1.57 1.36.06 4.35.51 6.78 3.07 2.88 3.01 2.8 6.71 2.71 7.77-.04.52-.48.92-1 .92zm-8.42-6.18c.31 0 .61.15.8.4l1.08 1.43c1.12 1.48 2.9 2.36 4.76 2.36h.8c-.05-1.3-.43-3.47-2.19-5.31-2.1-2.2-4.8-2.44-5.58-2.46-.13 0-.25-.03-.37-.08-2.74-1.18-5.97-.71-8.23 1.19-1.94 1.63-2.95 4.13-2.76 6.65h3.86c2.81 0 5.43-1.4 6.99-3.74.18-.27.48-.43.8-.45h.03z"/><path d="m29.42 44.37c-.18 0-.36-.05-.52-.15-.44-.27-1.15-.59-2.08-.59h-.02c-.99 0-1.74.37-2.1.59-.47.29-1.09.14-1.38-.33s-.14-1.09.33-1.38c.66-.4 1.74-.88 3.14-.88h.03c1.38 0 2.46.48 3.11.88.47.29.62.9.33 1.38-.19.31-.52.48-.86.48z"/><path d="m26.8 54.88c-2.95 0-5.35-2.4-5.35-5.35 0-.55.45-1 1-1s1 .45 1 1c0 1.85 1.5 3.35 3.35 3.35s3.35-1.5 3.35-3.35c0-.55.45-1 1-1s1 .45 1 1c0 2.95-2.4 5.35-5.35 5.35z"/><path d="m19.54 17.96c-.08 0-.16 0-.24-.03l-5.92-1.48c-5.73 1.1-10.8-3-10.8-8.13.01-4.59 4.04-8.32 8.99-8.32s8.98 3.73 8.98 8.31c0 1.9-.69 3.71-1.96 5.18l1.81 2.94c.21.35.2.79-.04 1.12-.19.26-.49.41-.81.41zm-6.13-3.54c.08 0 .16 0 .24.03l3.75.94-.93-1.5c-.25-.4-.18-.92.16-1.25 1.23-1.18 1.91-2.72 1.91-4.33 0-3.48-3.13-6.31-6.98-6.31s-6.98 2.83-6.98 6.31 3.13 6.31 6.98 6.31c.53 0 1.08-.06 1.63-.18.07-.01.14-.02.21-.02z"/><circle cx="9.39" cy="8.25" r="1.45"/><circle cx="13.74" cy="8.25" r="1.45"/><path d="m37.42 20.86c-.21 0-.42-.06-.59-.19-.38-.28-.51-.79-.32-1.22l3.42-7.46h-2.51c-.37 0-.71-.21-.88-.53-.17-.33-.15-.72.06-1.03l6.77-9.99c.19-.27.5-.44.83-.44h6.78c.39 0 .74.22.9.57s.12.76-.13 1.06l-4.09 5.02h3.32c.41 0 .79.25.93.64s.04.83-.26 1.1l-13.56 12.2c-.19.17-.43.26-.67.26zm1.89-10.88h2.18c.34 0 .66.17.84.46s.21.65.07.96l-2.06 4.48 8.03-7.23h-2.82c-.39 0-.74-.22-.9-.57s-.12-.76.13-1.06l4.09-5.02h-4.15l-5.42 7.98z"/></g></svg>