<svg viewBox="0 0 58 60" xmlns="http://www.w3.org/2000/svg"><g fill="#949b76"><path d="m49.86 48.25-2.07 2.25c-.51.56-.79 1.28-.79 2.03v6.47c0 .55.45 1 1 1s1-.45 1-1v-6.47c0-.25.09-.49.27-.67l2.07-2.25c.37-.41.35-1.04-.06-1.41s-1.04-.35-1.41.06z"/><path d="m56.85 22.9c-.73-.66-1.72-.99-2.71-.89-1.76.18-3.14 1.77-3.14 3.63v8.7c-1.3-.61-2.9-.38-3.98.68l-8.39 8.39c-1.7 1.7-2.63 3.96-2.63 6.36v9.23c0 .55.45 1 1 1s1-.45 1-1v-9.23c0-1.87.73-3.62 2.05-4.94l8.39-8.39c.59-.58 1.54-.58 2.12 0 .01.01.02.03.04.04.08.09.15.18.21.28.01.02.03.05.04.07.06.13.11.27.13.42v.02c.01.07.02.15.02.23 0 .4-.16.78-.44 1.06l-4.96 4.96c-.39.39-.39 1.02 0 1.41.2.2.45.29.71.29s.51-.1.71-.29l4.96-4.96c.66-.66 1.03-1.54 1.03-2.48 0-.11-.02-.22-.03-.33 0-.06.03-.11.03-.17v-11.36c0-.84.59-1.56 1.34-1.64.43-.04.85.09 1.17.38s.49.68.49 1.12v13.76c0 1.52-.57 2.97-1.6 4.07l-1.82 1.98c-.37.41-.35 1.04.06 1.41s1.04.35 1.41-.06l1.82-1.98c1.37-1.47 2.13-3.4 2.13-5.43v-13.76c0-.99-.42-1.94-1.15-2.6z"/><path d="m3.59 43.33c-1.03-1.1-1.59-2.55-1.59-4.07v-6.26c0-.55-.45-1-1-1s-1 .45-1 1v6.26c0 2.03.76 3.96 2.12 5.43l6.61 7.17c.17.19.27.43.27.67v6.47c0 .55.45 1 1 1s1-.45 1-1v-6.47c0-.75-.28-1.47-.79-2.03l-6.61-7.17z"/><path d="m19.37 43.41-8.39-8.39c-1.07-1.06-2.68-1.29-3.97-.68v-8.7c0-1.86-1.38-3.45-3.14-3.63-.99-.1-1.98.22-2.71.89s-1.15 1.61-1.15 2.6v3.5c0 .55.45 1 1 1s1-.45 1-1v-3.5c0-.43.18-.83.49-1.12.32-.29.73-.42 1.17-.38.75.08 1.34.79 1.34 1.64v11.36c0 .06.02.11.03.17-.01.11-.03.22-.03.33 0 .94.36 1.81 1.03 2.47l4.96 4.96c.2.2.45.29.71.29s.51-.1.71-.29c.39-.39.39-1.02 0-1.41l-4.96-4.96c-.28-.28-.44-.66-.44-1.06 0-.08.01-.15.02-.23 0 0 0 0 0-.02.02-.15.07-.29.13-.42.01-.03.03-.05.04-.07.05-.1.12-.19.2-.28.02-.02.03-.04.04-.05.59-.57 1.54-.57 2.12 0l8.39 8.39c1.32 1.32 2.05 3.08 2.05 4.94v9.23c0 .55.45 1 1 1s1-.45 1-1v-9.23c0-2.4-.94-4.66-2.63-6.36z"/><path d="m29 33c-.17 0-.33-.04-.49-.13-.51-.28-12.51-7.05-12.51-15.04 0-3.77 3.35-6.83 7.46-6.83 2.29 0 4.23 1.27 5.54 2.71 1.31-1.45 3.25-2.71 5.54-2.71 4.11 0 7.46 3.06 7.46 6.83 0 2.58-1.25 5.29-3.7 8.06-.37.41-1 .45-1.41.08s-.45-1-.08-1.41c2.12-2.38 3.2-4.65 3.2-6.73 0-2.66-2.45-4.83-5.46-4.83-2.05 0-3.82 1.55-4.71 2.89-.37.56-1.29.56-1.66 0-.89-1.33-2.66-2.89-4.71-2.89-3.01 0-5.46 2.17-5.46 4.83 0 6.01 8.81 11.69 11 13.01.91-.55 2.96-1.84 5.03-3.6.42-.36 1.05-.3 1.41.12s.3 1.05-.12 1.41c-2.93 2.47-5.72 4.04-5.84 4.1-.15.08-.32.13-.49.13z"/><path d="m29 40c-11.03 0-20-8.97-20-20 0-4.71 1.67-9.27 4.7-12.86.36-.42.99-.48 1.41-.12s.47.99.12 1.41c-2.72 3.22-4.22 7.33-4.22 11.56 0 9.93 8.07 18 18 18s18-8.07 18-18-8.08-17.99-18.01-17.99c-3.99 0-7.91 1.35-11.04 3.8-.43.34-1.06.26-1.4-.17-.34-.44-.26-1.06.17-1.4 3.48-2.73 7.84-4.23 12.27-4.23 11.03 0 20 8.97 20 20s-8.97 20-20 20z"/></g></svg>