<svg viewBox="0 0 55.92 57.83" xmlns="http://www.w3.org/2000/svg"><g fill="#949b76"><path d="m5.01 57.83c-.55 0-1-.45-1-1 0-6.17 5.02-11.23 11.18-11.3h.01c.55 0 .99.44 1 .99 0 .55-.44 1-.99 1.01-5.08.05-9.21 4.22-9.21 9.3 0 .55-.45 1-1 1z"/><path d="m24.03 47.54c-.55 0-1-.45-1-1v-2.59c-.12-.17-.19-.37-.19-.59 0-.55.45-1 1-1h.19c.55 0 1 .45 1 1v3.18c0 .55-.45 1-1 1z"/><path d="m15.21 47.54c-.55 0-1-.45-1-1v-3.18c0-.55.45-1 1-1s1.04.45 1.04 1c0 .1-.01.19-.04.28v2.9c0 .55-.45 1-1 1z"/><path d="m19.56 45.4c-.44 0-.82-.02-1.18-.07-1.27-.14-2.47-.51-3.57-1.09-2.64-1.38-4.57-3.92-5.15-6.81l-.21-1.1c-1.6-.48-2.77-1.97-2.77-3.69 0-1.28.64-2.47 1.69-3.18-.04-.75 0-1.45.12-2.13.1-.54.62-.9 1.16-.81.54.1.91.61.81 1.16-.12.68-.14 1.42-.05 2.24.05.43-.2.85-.6 1.02-.69.3-1.13.97-1.13 1.7 0 .96.75 1.76 1.71 1.84.45.04.83.38.91.83l.32 1.73c.46 2.29 2 4.32 4.12 5.42.88.47 1.85.76 2.87.88.64.08 1.26.08 1.88 0 1.04-.12 2-.41 2.88-.88 2.12-1.11 3.66-3.14 4.12-5.43l.32-1.73c.08-.46.48-.81.95-.83 1-.04 1.78-.85 1.78-1.84 0-.76-.47-1.44-1.2-1.71-.42-.16-.68-.59-.64-1.04.09-.83.07-1.55-.05-2.2-.1-.54.26-1.06.81-1.16.54-.1 1.06.26 1.16.81.12.65.16 1.33.12 2.08 1.09.7 1.79 1.92 1.79 3.23 0 1.79-1.21 3.29-2.88 3.72l-.2 1.06c-.58 2.89-2.51 5.44-5.15 6.82-1.09.58-2.3.95-3.57 1.09-.35.04-.74.07-1.17.07z"/><path d="m30.22 28.52h-1.81c-2.51 0-4.91-1.19-6.43-3.19l-.31-.4c-1.99 2.27-4.86 3.6-7.92 3.6h-4.8c-.48 0-.9-.34-.98-.82-.65-3.55.64-7.18 3.37-9.48 2.81-2.37 6.82-2.99 10.26-1.59 1.37.07 4.4.52 6.87 3.11 2.92 3.05 2.84 6.8 2.75 7.87-.04.52-.48.91-1 .91zm-8.54-6.24c.31 0 .61.15.8.4l1.1 1.45c1.14 1.5 2.95 2.4 4.84 2.4h.82c-.05-1.28-.43-3.53-2.22-5.41-2.13-2.23-4.88-2.47-5.67-2.49-.13 0-.25-.03-.37-.08-2.79-1.2-6.07-.72-8.36 1.21-1.97 1.66-3 4.2-2.8 6.77h3.93c2.86 0 5.51-1.42 7.1-3.8.18-.27.48-.43.8-.45z"/><path d="m16.96 38.85c-.34 0-.67-.17-.86-.48-.29-.47-.14-1.09.33-1.38.67-.41 1.76-.89 3.18-.89h.03c1.4 0 2.49.49 3.15.89.47.29.62.9.33 1.37s-.9.62-1.37.33c-.45-.27-1.17-.6-2.12-.6h-.02c-.95 0-1.69.33-2.14.6-.16.1-.34.15-.52.15z"/><path d="m19.61 50.98c-2.98 0-5.41-2.43-5.41-5.41 0-.55.45-1 1-1s1 .45 1 1c0 1.88 1.53 3.41 3.41 3.41s3.41-1.53 3.41-3.41c0-.55.45-1 1-1s1 .45 1 1c0 2.98-2.43 5.41-5.41 5.41z"/><path d="m52.03 57.71h-22.96c-1.42 0-2.69-.74-3.39-1.98s-.67-2.7.06-3.92l11.48-18.96c.71-1.17 1.95-1.88 3.33-1.88 1.37 0 2.61.7 3.32 1.88l11.48 18.96c.74 1.22.76 2.68.06 3.92s-1.96 1.98-3.39 1.98zm-13.09-23.82-11.48 18.96c-.36.59-.37 1.3-.03 1.9s.95.96 1.64.96h22.96c.69 0 1.3-.36 1.64-.96s.33-1.31-.03-1.9l-11.48-18.96c-.34-.57-.95-.91-1.61-.91-.67 0-1.27.34-1.61.91z"/><path d="m20.06 10.44s-.06 0-.1 0c-.55-.05-.95-.54-.9-1.09l.31-3.24-1.12.41c-.32.12-.69.06-.96-.15s-.42-.55-.38-.89l.49-4.57c.06-.55.54-.95 1.1-.89.55.06.95.55.89 1.1l-.32 2.98 1.11-.41c.32-.12.68-.06.96.15.27.21.42.54.38.89l-.47 4.82c-.05.52-.49.9-.99.9z"/><path d="m8.05 15.22c-.3 0-.59-.13-.79-.38l-2.02-2.55-.53 1.07c-.15.31-.45.52-.8.56-.34.03-.68-.11-.89-.38l-2.81-3.64c-.34-.44-.26-1.06.18-1.4s1.06-.26 1.4.18l1.84 2.37.52-1.06c.15-.31.45-.52.79-.56.35-.04.68.11.89.37l3.01 3.8c.34.43.27 1.06-.16 1.41-.18.15-.4.22-.62.22z"/><path d="m26.7 10.6c-.07 0-.15 0-.22-.03-.54-.12-.88-.66-.75-1.2l1.09-4.72c.08-.33.32-.61.65-.72.32-.11.68-.05.95.16l.92.74.64-2.93c.12-.54.65-.88 1.19-.76s.88.65.76 1.19l-.99 4.49c-.07.34-.32.61-.64.73s-.69.05-.96-.16l-.94-.75-.73 3.17c-.11.46-.52.78-.97.78z"/><path d="m12.52 10.6c-.46 0-.87-.31-.97-.78l-.73-3.17-.94.75c-.27.21-.63.28-.96.16s-.57-.39-.64-.73l-.99-4.49c-.12-.54.22-1.07.76-1.19.53-.12 1.07.22 1.19.76l.64 2.93.92-.74c.27-.21.63-.27.95-.16.33.11.57.39.65.72l1.09 4.72c.12.54-.21 1.07-.75 1.2-.08.02-.15.03-.22.03z"/><path d="m31.18 15.22c-.22 0-.44-.07-.62-.22-.43-.34-.51-.97-.16-1.4l3.01-3.8c.21-.27.54-.41.89-.37.34.04.64.25.79.55l.52 1.06 1.84-2.37c.34-.43.97-.52 1.4-.18s.52.97.18 1.4l-2.82 3.63c-.21.27-.55.41-.89.38-.34-.04-.64-.25-.8-.56l-.53-1.08-2.02 2.55c-.2.25-.49.38-.79.38z"/><path d="m40.21 47.42c-.55 0-1-.45-1-1v-7.36c0-.55.45-1 1-1s1 .45 1 1v7.36c0 .55-.45 1-1 1z"/><path d="m40.21 53.3c-.55 0-1-.45-1-1v-1.47c0-.55.45-1 1-1s1 .45 1 1v1.47c0 .55-.45 1-1 1z"/></g></svg>