<svg viewBox="0 0 52 60" xmlns="http://www.w3.org/2000/svg"><g fill="#949b76"><path d="m7.11 60c-.17 0-.34-.04-.49-.13-.48-.27-.65-.88-.38-1.36l2.08-3.67c1.72-3.04 1.79-6.72.19-9.83l-5.85-11.35c-1.74-3.27-2.66-6.96-2.66-10.66 0-6.16 2.45-11.95 6.89-16.29.39-.39 1.03-.38 1.41.02.39.39.38 1.03-.02 1.41-4.06 3.97-6.29 9.25-6.29 14.87 0 3.37.84 6.73 2.43 9.73l5.86 11.36c1.91 3.71 1.82 8.09-.23 11.73l-2.08 3.67c-.18.32-.52.51-.87.51z"/><path d="m31.55 60c-.55 0-1-.45-1-1v-5c0-1.1.91-2 2.02-2h3.69c.75 0 1.45-.26 1.97-.73.2-.18.4-.38.6-.58.38-.4 1.02-.41 1.41-.03.4.38.41 1.01.03 1.41-.23.24-.46.46-.7.68-.89.81-2.07 1.25-3.31 1.25h-3.69l-.02 5c0 .55-.45 1-1 1z"/><path d="m41.98 49.15c-.17 0-.35-.04-.51-.14-.47-.28-.63-.9-.35-1.37 3.1-5.2 3.69-11.66 3.69-11.72.04-.52.48-.91 1-.91h4.17l-4.42-6.28c-.7-1-1.02-2.23-.88-3.45.08-.71.12-1.47.12-2.27 0-11.58-9.6-21-21.4-21-4.37 0-8.57 1.28-12.15 3.7-.46.31-1.08.19-1.39-.27s-.19-1.08.27-1.39c3.92-2.65 8.51-4.05 13.28-4.05 12.9 0 23.4 10.32 23.4 23 0 .87-.05 1.71-.14 2.49-.08.74.1 1.47.52 2.07l4.44 6.29c.43.62.48 1.4.13 2.07s-1.03 1.08-1.79 1.08h-3.28c-.28 2.06-1.21 7.21-3.86 11.66-.19.31-.52.49-.86.49z"/><path d="m38.19 17.34c-.8-1.33-1.98-1.93-2.72-2.19-.91-3.36-2.55-5.54-4.85-6.51-2.99-1.25-6.17-.02-7.49.62-1.24-.89-3.2-1.63-6.12-1.03-4.83.97-5.74 4.62-5.86 6.74-.54.03-1.09.13-1.6.34-1.04.43-1.79 1.27-2.19 2.41-1.17 3.38.69 5.88 1.7 6.91-.59 1.8-.59 4.82 2.65 6.9 1.17.75 2.38 1.13 3.49 1.14v4.34c0 .55.45 1 1 1h4.26c.55 0 1-.45 1-1 0-2.64 1.38-4.4 1.95-5.01 2.37-.11 4.54-1.09 5.67-2.16.33.11.66.2 1 .26.36.06.74.09 1.13.09 2.55 0 5.57-1.4 6.99-5.49 1.07-3.08 1.06-5.55-.02-7.35zm-1.87 6.69c-1.23 3.54-3.85 4.43-5.89 4.08-1.99-.34-4-1.96-4-4.82 0-.55-.45-1-1-1s-1 .45-1 1c0 2.29 1.05 4.27 2.73 5.52-.91.58-2.42 1.18-4.15 1.18-.24 0-.48.09-.66.25-.11.09-2.44 2.17-2.82 5.75h-2.31v-3.79c.24-.12.47-.26.68-.44 1.53-1.25 1.89-3.52.96-5.92-.2-.51-.78-.77-1.29-.57s-.77.78-.57 1.29c.62 1.59.49 2.95-.36 3.65-.87.72-2.34.57-3.82-.38-3.06-1.96-1.81-4.72-1.66-5.02.22-.43.1-.95-.28-1.25-.03-.02-2.68-2.12-1.61-5.2.21-.62.55-1.01 1.07-1.22 1.32-.55 3.43.2 4.14.53.5.24 1.1.03 1.33-.47.24-.5.03-1.09-.47-1.33-.17-.08-1.05-.49-2.18-.73.06-1.81.81-4.27 4.27-4.96 2.07-.42 3.73-.08 4.94 1 1.8 1.62 2.07 4.39 2.07 4.41.05.55.52.96 1.08.91.55-.05.96-.53.91-1.08-.01-.12-.25-2.59-1.77-4.65 1.25-.5 3.34-1.07 5.2-.29 1.81.76 3.09 2.68 3.82 5.7.09.39.42.69.82.76.01 0 1.26.23 1.98 1.43.75 1.25.7 3.21-.15 5.67z"/><path d="m31.14 24.81c-.09 0-.17-.01-.26-.04-.53-.14-.85-.69-.7-1.23.45-1.64.25-2.5 0-2.92-.24-.41-.58-.51-.59-.51-.52-.14-.86-.67-.74-1.19.12-.53.62-.87 1.15-.76.12.02 1.16.25 1.86 1.37.69 1.1.77 2.63.25 4.54-.12.44-.52.74-.96.74z"/><path d="m18.05 23.05c-.08 0-.17-.01-.26-.03-.53-.14-.85-.69-.71-1.22 1.21-4.56 4.79-5.02 4.94-5.04.54-.07 1.04.33 1.11.88.06.54-.33 1.04-.87 1.11-.12.02-2.4.38-3.25 3.57-.12.45-.52.74-.97.74z"/></g></svg>