<svg viewBox="0 0 60.92 60.92" xmlns="http://www.w3.org/2000/svg"><g fill="#949b76"><path d="m60.62.29c-.39-.39-1.02-.39-1.41 0l-9.19 9.19-1.87-1.87c-1.38-1.38-3.63-1.38-5.01 0l-1.35 1.35-.88-.88c-1.34-1.34-3.67-1.34-5.01 0l-18.18 18.18s0 0 0 0l-6.12 6.12-1.84-1.84c-1.14-1.14-3.01-1.14-4.15 0l-.7.7c-1.14 1.14-1.14 3.01 0 4.15l7.36 7.36-5.19 5.19-1.83-1.83c-1.11-1.11-3.04-1.11-4.15 0l-.22.22c-1.15 1.15-1.15 3.01 0 4.15l9.56 9.56c.57.57 1.32.86 2.08.86s1.5-.29 2.08-.86l.22-.22c.55-.55.86-1.29.86-2.08s-.31-1.52-.86-2.08l-1.83-1.83 5.19-5.19 7.35 7.35c.57.57 1.33.86 2.08.86s1.5-.29 2.08-.86l.7-.7c1.14-1.14 1.14-3.01 0-4.15l-1.83-1.83 24.31-24.31c1.38-1.38 1.38-3.63 0-5.01l-.88-.88 1.35-1.35c1.38-1.38 1.38-3.63 0-5.01l-1.87-1.87 9.15-9.17c.39-.39.39-1.02 0-1.41zm-47.24 58.13-.22.22c-.37.37-.96.37-1.32 0l-9.56-9.56c-.37-.37-.37-.96 0-1.33l.22-.22c.18-.18.42-.27.66-.27s.48.09.66.27l9.56 9.56c.37.37.37.96 0 1.33zm5.03-30.02 4.11 4.11-5.42 5.42-4.11-4.11zm.11 10.93 5.42-5.42 3.07 3.07-5.42 5.42zm-6.97 13.11-3.07-3.07 5.19-5.19 3.07 3.07zm17.39 1.47-.7.7c-.37.36-.96.36-1.32 0l-20.61-20.61c-.37-.37-.37-.96 0-1.32l.7-.7c.37-.37.96-.37 1.32 0l20.61 20.61c.37.37.37.96 0 1.32zm-5.94-10.1 5.42-5.42 4.11 4.11-5.42 5.42zm28.42-20.2-17.48 17.48-14.11-14.11 17.48-17.48c.59-.59 1.59-.59 2.18 0l11.93 11.93c.6.6.6 1.58 0 2.18zm.47-7.24-1.35 1.35-7.34-7.34 1.35-1.35c.6-.6 1.58-.6 2.18 0l5.16 5.16c.6.6.6 1.58 0 2.18z"/><path d="m50.01 37.16c-5.27 0-9.56 4.29-9.56 9.56s4.29 9.56 9.56 9.56 9.56-4.29 9.56-9.56-4.29-9.56-9.56-9.56zm0 17.13c-4.17 0-7.56-3.39-7.56-7.56s3.39-7.56 7.56-7.56 7.56 3.39 7.56 7.56-3.39 7.56-7.56 7.56z"/><path d="m53.63 43.1c-.39-.39-1.02-.39-1.41 0l-2.21 2.21-2.21-2.21c-.39-.39-1.02-.39-1.41 0s-.39 1.02 0 1.41l2.21 2.21-2.21 2.21c-.39.39-.39 1.02 0 1.41.2.2.45.29.71.29s.51-.1.71-.29l2.21-2.21 2.21 2.21c.2.2.45.29.71.29s.51-.1.71-.29c.39-.39.39-1.02 0-1.41l-2.21-2.21 2.21-2.21c.39-.39.39-1.02 0-1.41z"/></g></svg>