<svg viewBox="0 0 55.55 55.53" xmlns="http://www.w3.org/2000/svg"><g fill="#949b76"><path d="m35.54 55.53c-1.72 0-3.11-1.4-3.11-3.11v-23.9c0-.55.45-1 1-1s1 .45 1 1v23.9c0 .61.5 1.11 1.11 1.11s1.11-.5 1.11-1.11v-26.28c0-.55.45-1 1-1s1 .45 1 1v26.28c0 1.72-1.4 3.11-3.11 3.11z"/><path d="m33.42 14.68c-.55 0-1-.45-1-1v-10.57c0-1.72 1.4-3.11 3.11-3.11s3.11 1.4 3.11 3.11v9.43c0 .55-.45 1-1 1s-1-.45-1-1v-9.43c0-.61-.5-1.11-1.11-1.11s-1.11.5-1.11 1.11v10.56c0 .55-.45 1-1 1z"/><path d="m20.03 17.81c-3.75 0-6.79-3.05-6.79-6.79s3.05-6.79 6.79-6.79 6.79 3.05 6.79 6.79-3.05 6.79-6.79 6.79zm0-11.59c-2.64 0-4.79 2.15-4.79 4.79s2.15 4.79 4.79 4.79 4.79-2.15 4.79-4.79-2.15-4.79-4.79-4.79z"/><path d="m23.27 55.49c-1.3 0-2.46-.59-3.24-1.51-.78.92-1.95 1.51-3.24 1.51-2.32 0-4.22-1.89-4.24-4.2v-22.54l-10.62-5.97c-1.19-.67-1.93-1.93-1.93-3.29s.71-2.6 1.9-3.28 2.61-.67 3.79.02l6.15 3.61c.93.54 1.99.83 3.06.83h10.25c1.08 0 2.13-.29 3.06-.83l6.15-3.61c1.18-.7 2.6-.7 3.79-.02s1.9 1.91 1.9 3.28-.74 2.63-1.93 3.3l-10.61 5.96v22.54c-.02 2.33-1.92 4.21-4.24 4.21zm-3.24-5.21c.55 0 1 .44 1 .99.01 1.23 1.02 2.22 2.24 2.22s2.23-1 2.24-2.22v-23.11c0-.36.2-.7.51-.87l11.12-6.25c.56-.31.91-.91.91-1.55s-.33-1.22-.9-1.54c-.56-.32-1.23-.32-1.79 0l-6.15 3.61c-1.23.72-2.64 1.11-4.08 1.11h-10.25c-1.43 0-2.84-.38-4.08-1.11l-6.15-3.61c-.55-.33-1.22-.33-1.79-.01-.56.32-.9.9-.9 1.54s.35 1.24.91 1.55l11.12 6.25c.32.18.51.51.51.87v23.12c.01 1.22 1.02 2.21 2.24 2.21s2.23-1 2.24-2.22c0-.55.45-.99 1-.99z"/><path d="m20.03 52.71c-.55 0-1-.45-1-1v-9.46c0-.55.45-1 1-1s1 .45 1 1v9.46c0 .55-.45 1-1 1z"/><path d="m54.55 21.72h-9.86c-1.33 0-2.41-1.08-2.41-2.41v-4.23c0-.55.45-1 1-1s1 .45 1 1v4.23c0 .22.19.41.41.41h8.24l-2.09-4.19c-.14-.28-.14-.61 0-.89l2.09-4.19h-6.83c-.55 0-1-.45-1-1s.45-1 1-1h8.45c.35 0 .67.18.85.47s.2.66.04.97l-2.59 5.19 2.59 5.19c.16.31.14.68-.04.97s-.5.47-.85.47z"/><path d="m44.69 16.08h-3.6c-.55 0-1-.45-1-1s.45-1 1-1h3.6c.22 0 .41-.18.41-.41v-8.44c0-.23-.18-.41-.41-.41h-6.04v5.69c0 .55-.45 1-1 1s-1-.45-1-1v-6.69c0-.55.45-1 1-1h7.04c1.33 0 2.41 1.08 2.41 2.41v8.45c0 1.33-1.08 2.41-2.41 2.41z"/></g></svg>