<svg viewBox="0 0 56.7 65.68" xmlns="http://www.w3.org/2000/svg"><g fill="#949b76"><path d="m20.45 54.55c-2.62 0-5.07-1.03-6.88-2.85-1.04.96-2.41 1.51-3.86 1.51-2.79 0-5.16-2.07-5.59-4.79-2.59-1.97-4.12-5.03-4.12-8.27s1.49-6.23 4.02-8.19c.08-5.66 4.71-10.25 10.39-10.25.8 0 1.58.09 2.34.27.01-.02.02-.03.02-.03 1.98-2.68 5.1-4.26 8.38-4.26.36 0 .71.02 1.06.06.55.06.95.55.89 1.1s-.55.95-1.1.89c-.28-.03-.57-.04-.86-.04-2.65 0-5.17 1.27-6.74 3.4-.01.02-.06.11-.15.2-.06.08-.12.17-.17.26l-.08.12c-.25.38-.72.55-1.15.41-.78-.25-1.61-.38-2.46-.38-4.63 0-8.39 3.76-8.39 8.39 0 .06 0 .12.02.18.05.37-.11.77-.42.98-2.26 1.57-3.62 4.14-3.62 6.89s1.35 5.31 3.62 6.89c.09.07.17.15.24.24.11.15.19.33.2.52.14 1.92 1.75 3.42 3.65 3.42 1.23 0 2.34-.58 3.03-1.59.18-.26.48-.42.79-.43.33.02.62.13.82.39 1.47 1.89 3.69 2.98 6.09 2.98.63 0 1.21-.07 1.76-.21.17-.03.29-.06.4-.1 1.65-.5 3.06-1.49 4.03-2.82l.1-.13c.04-.05.08-.1.12-.16.16-.26.43-.43.73-.46.3-.04.6.07.82.28 1.46 1.45 3.4 2.25 5.45 2.25 4.02 0 7.4-3.14 7.69-7.15.04-.55.51-.96 1.06-.93.22.01.43.03.65.03 3.94 0 7.24-2.95 7.67-6.86.06-.55.57-.94 1.1-.89.55.06.95.55.89 1.1-.53 4.87-4.59 8.56-9.48 8.64-.79 4.58-4.82 8.05-9.56 8.05-2.21 0-4.3-.73-6.02-2.08-1.19 1.41-2.8 2.47-4.6 3.01-.16.06-.4.12-.61.16-.65.17-1.38.25-2.18.25z"/><path d="m5.04 48.85c-.55 0-.99-.44-.99-.99 0-.15.04-3.73 4.27-5.16.52-.18 1.09.11 1.27.63s-.11 1.09-.63 1.27c-2.83.95-2.91 3.17-2.91 3.27-.01.54-.46.99-1 .99z"/><path d="m10.99 33.43c-.15 0-.29-.03-.43-.1-2.77-1.34-4.9-.1-4.99-.05-.47.28-1.08.13-1.37-.33-.29-.47-.14-1.08.32-1.37.13-.08 3.12-1.88 6.91-.05.5.24.71.84.46 1.34-.17.36-.53.56-.9.56z"/><path d="m16.04 28.52c-.55 0-1-.45-1-1 0-2.01.6-3.94 1.74-5.59.31-.45.94-.57 1.39-.25.45.31.57.94.25 1.39-.91 1.31-1.39 2.85-1.39 4.46 0 .55-.45 1-1 1z"/><path d="m42.54 45.12s-.09 0-.14 0c-.54-.08-.92-.57-.85-1.12.01-.1.17-1.81-1.48-4.07-.33-.45-.23-1.07.22-1.4.44-.33 1.07-.23 1.4.22 2.18 2.97 1.87 5.41 1.85 5.52-.07.5-.5.86-.99.86z"/><path d="m29.88 34.93c-.25 0-.5-.09-.7-.28-3.47-3.39-6.52-1.59-7.52-1-.2.12-.34.19-.42.22-.52.19-1.09-.08-1.28-.6-.18-.5.06-1.05.54-1.26.04-.02.08-.05.14-.08 4.44-2.61 7.85-.73 9.93 1.3.4.39.4 1.02.02 1.41-.2.2-.46.3-.72.3z"/><path d="m25.21 32.64c-.54 0-.98-.43-1-.97 0-.15 0-1.46 1.03-2.53.8-.82 1.95-1.23 3.42-1.23.55 0 1 .45 1 1s-.45 1-1 1c-.91 0-1.58.21-1.99.63-.45.46-.46 1.07-.46 1.08.01.55-.42 1.01-.97 1.03h-.03z"/><path d="m26.48 52.3c-.22 0-.45-.08-.64-.23-.43-.35-.48-.98-.13-1.41 1.33-1.61 1.52-2.27 1.45-3.56-.04-.81-.26-1.7-.59-2.45-.22-.51 0-1.1.51-1.32s1.1 0 1.32.51c.43.97.7 2.09.76 3.15.11 1.92-.32 3.03-1.9 4.94-.2.24-.48.36-.77.36z"/><path d="m13.57 51.18c-.19 0-.37-.05-.54-.16-.46-.3-.6-.92-.3-1.38.08-.12 1.95-2.97 4.78-2.97h.13c.55.02.99.48.97 1.03s-.48 1-1.03.97c-1.72-.06-3.15 2.03-3.16 2.05-.19.3-.51.46-.84.46z"/><path d="m14.3 40.59c-2.6 0-4.38-1.24-4.49-1.32-.45-.32-.55-.95-.23-1.39.32-.45.94-.56 1.39-.24.15.1 3.37 2.27 7.3-.35.46-.31 1.08-.18 1.39.28s.18 1.08-.28 1.39c-1.85 1.23-3.59 1.63-5.07 1.63z"/><path d="m16.04 59.15c-3.8 0-6.99-2.72-7.58-6.46l1.97-.31c.44 2.77 2.79 4.78 5.6 4.78 2.65 0 4.92-1.79 5.52-4.35l1.95.46c-.82 3.47-3.89 5.89-7.47 5.89z"/><path d="m19.45 65.68c-.28 0-.55-.11-.75-.34-.37-.41-.33-1.05.09-1.41 4.51-3.98 3.21-10.49 3.2-10.55-.11-.54.23-1.07.77-1.18.53-.11 1.07.23 1.18.77.07.31 1.57 7.71-3.83 12.47-.19.17-.43.25-.66.25z"/><path d="m27.32 63.94c-.2 0-.39-.06-.57-.18-.46-.31-.57-.94-.26-1.39 4.5-6.54 1.02-11.39.87-11.59-.33-.44-.24-1.07.21-1.4.44-.33 1.06-.24 1.4.2.19.25 4.52 6.16-.82 13.92-.19.28-.51.43-.83.43z"/><path d="m44.63 35.57c-2.82 0-5.12-2.29-5.12-5.11 0-.1 0-.25.04-.43.11-.54.65-.88 1.18-.77.54.11.89.64.77 1.18 0 1.73 1.41 3.12 3.13 3.12s3.11-1.39 3.11-3.11c-.11-.54.25-1.08.79-1.19.53-.11 1.07.23 1.18.77.03.14.03.28.03.42 0 2.82-2.29 5.11-5.11 5.11z"/><path d="m47.78 31.47h-6.33c-1.71 0-3.11-1.4-3.11-3.11v-5.96c-4.18-2.55-6.44-7.43-5.64-12.34.86-5.27 5.18-9.38 10.51-9.98 3.45-.38 6.88.7 9.44 2.99s4.03 5.57 4.03 9.01c0 4.23-2.21 8.13-5.8 10.32v5.96c0 1.71-1.39 3.11-3.11 3.11zm-3.15-29.48c-.39 0-.79.02-1.19.07-4.37.49-8.06 3.99-8.76 8.31-.71 4.34 1.31 8.48 5.14 10.56.32.17.52.51.52.88v6.54c0 .61.5 1.11 1.11 1.11h6.33c.61 0 1.11-.5 1.11-1.11v-6.54c0-.37.2-.7.52-.88 3.26-1.77 5.28-5.16 5.28-8.86 0-2.87-1.23-5.61-3.37-7.52-1.87-1.67-4.21-2.56-6.7-2.56z"/><path d="m39.45 20.67h10.34v2h-10.34z"/><path d="m43.62 20.88h2v10.44h-2z" transform="matrix(.14141959 -.98994975 .98994975 .14141959 12.47 66.58)"/><path d="m44.62 15.29c-.55 0-1-.45-1-1v-5.91c0-.55.45-1 1-1s1 .45 1 1v5.91c0 .55-.45 1-1 1z"/><path d="m47.57 12.33h-5.91c-.55 0-1-.45-1-1s.45-1 1-1h5.91c.55 0 1 .45 1 1s-.45 1-1 1z"/></g></svg>