<svg viewBox="0 0 60 60" xmlns="http://www.w3.org/2000/svg"><g fill="#949b76"><path d="m59 42h-46c-.55 0-1-.45-1-1s.45-1 1-1h45v-4h-56v4h7c.55 0 1 .45 1 1s-.45 1-1 1h-8c-.55 0-1-.45-1-1v-6c0-.55.45-1 1-1h58c.55 0 1 .45 1 1v6c0 .55-.45 1-1 1z"/><path d="m15 29c-1.86 0-3.61-.87-4.79-2.39-.34-.44-.26-1.06.17-1.4.44-.34 1.06-.26 1.4.17.8 1.03 1.97 1.61 3.21 1.61s2.41-.59 3.21-1.61c.34-.44.97-.51 1.4-.17.44.34.51.97.17 1.4-1.18 1.52-2.93 2.39-4.79 2.39z"/><path d="m45 60h-6c-.55 0-1-.45-1-1s.45-1 1-1h5v-2h-28v2h19c.55 0 1 .45 1 1s-.45 1-1 1h-20c-.55 0-1-.45-1-1v-4c0-.55.45-1 1-1h30c.55 0 1 .45 1 1v4c0 .55-.45 1-1 1z"/><path d="m40 56h-20c-.34 0-.65-.17-.83-.45s-.22-.64-.08-.94l4.29-10c.22-.51.81-.74 1.31-.52.51.22.74.81.52 1.31l-3.69 8.61h16.97l-3.69-8.61c-.22-.51.02-1.1.52-1.31.51-.22 1.1.02 1.31.52l4.29 10c.13.31.1.66-.08.94s-.5.45-.83.45z"/><path d="m15 36c-7.17 0-13-5.83-13-13s5.83-13 13-13 13 5.83 13 13-5.83 13-13 13zm0-24c-6.07 0-11 4.93-11 11s4.93 11 11 11 11-4.93 11-11-4.93-11-11-11z"/><path d="m12 22c-.55 0-1-.45-1-1s-.45-1-1-1-1 .45-1 1-.45 1-1 1-1-.45-1-1c0-1.65 1.35-3 3-3s3 1.35 3 3c0 .55-.45 1-1 1z"/><path d="m22 22c-.55 0-1-.45-1-1s-.45-1-1-1-1 .45-1 1-.45 1-1 1-1-.45-1-1c0-1.65 1.35-3 3-3s3 1.35 3 3c0 .55-.45 1-1 1z"/><path d="m49 29c-.3 0-.59-.13-.79-.39-.8-1.03-1.97-1.61-3.21-1.61s-2.41.59-3.21 1.61c-.34.44-.97.51-1.4.17-.44-.34-.51-.97-.17-1.4 1.18-1.52 2.93-2.39 4.79-2.39s3.61.87 4.79 2.39c.34.44.26 1.06-.17 1.4-.18.14-.4.21-.61.21z"/><path d="m45 36c-7.17 0-13-5.83-13-13s5.83-13 13-13c1.91 0 3.75.4 5.48 1.2.5.23.72.83.49 1.33s-.83.72-1.33.49c-1.47-.68-3.03-1.02-4.64-1.02-6.07 0-11 4.93-11 11s4.93 11 11 11 11-4.93 11-11c0-2.99-1.17-5.78-3.3-7.85-.4-.39-.4-1.02-.02-1.41.39-.39 1.02-.4 1.41-.02 2.52 2.46 3.9 5.76 3.9 9.29 0 7.17-5.83 13-13 13z"/><path d="m40 22c-1.65 0-3-1.35-3-3 0-.55.45-1 1-1s1 .45 1 1 .45 1 1 1 1-.45 1-1 .45-1 1-1 1 .45 1 1c0 1.65-1.35 3-3 3z"/><path d="m50 22c-1.65 0-3-1.35-3-3 0-.55.45-1 1-1s1 .45 1 1 .45 1 1 1 1-.45 1-1 .45-1 1-1 1 .45 1 1c0 1.65-1.35 3-3 3z"/><path d="m30 4c-.55 0-1-.45-1-1v-2c0-.55.45-1 1-1s1 .45 1 1v2c0 .55-.45 1-1 1z"/><path d="m33.83 6.17c-.26 0-.51-.1-.71-.29-.39-.39-.39-1.02 0-1.41l1.41-1.41c.39-.39 1.02-.39 1.41 0s.39 1.02 0 1.41l-1.41 1.41c-.2.2-.45.29-.71.29z"/><path d="m26.17 6.17c-.26 0-.51-.1-.71-.29l-1.41-1.41c-.39-.39-.39-1.02 0-1.41s1.02-.39 1.41 0l1.41 1.41c.39.39.39 1.02 0 1.41-.2.2-.45.29-.71.29z"/></g></svg>