<svg viewBox="0 0 51.05 50.99" xmlns="http://www.w3.org/2000/svg"><g fill="#949b76"><path d="m37.15 34.4c-1.68 0-3.36-.49-4.83-1.46l-1.8-1.18c-.46-.3-.59-.92-.29-1.38s.92-.59 1.38-.29l1.81 1.19c2.26 1.5 5.18 1.5 7.44 0l1.81-1.19c3.99-2.62 6.38-7.15 6.38-12.12v-13.56c0-.81-.38-1.57-1.01-2.02-.57-.4-1.23-.5-1.87-.28-5.78 2.05-12.14 2.07-18.04.01-.65-.23-1.32-.13-1.89.27-.63.45-1.01 1.2-1.01 2.01v9.46c0 .55-.45 1-1 1s-1-.45-1-1v-9.45c0-1.46.69-2.83 1.85-3.65 1.09-.77 2.44-.97 3.7-.52 5.47 1.91 11.36 1.89 16.72-.01 1.26-.44 2.6-.24 3.69.54 1.16.83 1.85 2.19 1.85 3.65v13.55c0 5.65-2.72 10.8-7.28 13.8l-1.81 1.19c-1.46.97-3.14 1.46-4.82 1.46z"/><path d="m13.91 50.99c-1.68 0-3.36-.48-4.82-1.44l-1.81-1.19c-4.56-3-7.28-8.15-7.28-13.79v-13.56c0-1.46.69-2.82 1.85-3.64 1.1-.78 2.44-.97 3.7-.53 5.42 1.9 11.31 1.9 16.73 0 1.25-.44 2.59-.25 3.68.53 1.16.82 1.85 2.19 1.85 3.64v13.56c0 5.64-2.72 10.8-7.28 13.79l-1.81 1.19c-1.47.96-3.15 1.45-4.83 1.45zm-9.71-32.39c-.42 0-.83.13-1.19.39-.63.45-1.01 1.2-1.01 2.01v13.56c0 4.97 2.38 9.5 6.38 12.12l1.81 1.19c2.3 1.51 5.15 1.51 7.45 0l1.81-1.19c3.99-2.62 6.38-7.16 6.38-12.12v-13.56c0-.81-.38-1.56-1.01-2.01-.57-.4-1.23-.5-1.86-.27-5.85 2.06-12.21 2.06-18.06 0-.23-.08-.46-.12-.68-.12z"/><path d="m11.33 29.07c-.3 0-.6-.14-.8-.4-.65-.87-1.67-.89-1.78-.89-1.11 0-1.75.85-1.78.89-.33.44-.96.54-1.4.21s-.54-.96-.21-1.4c.21-.28 1.36-1.7 3.38-1.7.35 0 2.17.08 3.38 1.69.33.44.24 1.07-.2 1.4-.18.13-.39.2-.6.2z"/><path d="m16.49 29.07c-.21 0-.42-.07-.6-.2-.44-.33-.53-.96-.2-1.4.21-.28 1.37-1.69 3.38-1.69.35 0 2.17.08 3.38 1.69.33.44.24 1.07-.2 1.4s-1.07.24-1.4-.2c-.65-.87-1.67-.89-1.78-.89-1.08 0-1.71.8-1.78.89-.2.26-.5.4-.8.4z"/><path d="m13.91 40.69c-2.16 0-3.73-.93-4.47-1.49-.44-.33-.53-.96-.2-1.4s.96-.53 1.4-.2c.54.41 1.69 1.09 3.27 1.09.68 0 2.01-.14 3.27-1.09.44-.33 1.07-.24 1.4.2s.24 1.07-.2 1.4c-1.73 1.3-3.54 1.49-4.47 1.49z"/><path d="m31.98 12.29c-2 0-3.17-1.41-3.38-1.69-.33-.44-.25-1.07.2-1.4.44-.33 1.07-.25 1.4.2.07.09.71.89 1.78.89.11 0 1.13-.03 1.78-.89.33-.44.96-.53 1.4-.2s.53.96.2 1.4c-1.21 1.61-3.03 1.69-3.38 1.69z"/><path d="m42.31 12.29c-2 0-3.17-1.41-3.38-1.69-.33-.44-.25-1.07.2-1.4.44-.33 1.07-.25 1.4.2.07.09.71.89 1.78.89.05 0 1.12 0 1.78-.89.33-.44.96-.53 1.4-.2s.53.96.2 1.4c-1.21 1.61-3.03 1.69-3.38 1.69z"/><path d="m41.02 23.91c-.21 0-.42-.07-.6-.2-1.27-.95-2.59-1.09-3.27-1.09-1.58 0-2.73.68-3.27 1.09-.44.33-1.07.24-1.4-.2s-.24-1.07.2-1.4c.74-.56 2.31-1.49 4.47-1.49.93 0 2.74.19 4.47 1.49.44.33.53.96.2 1.4-.2.26-.5.4-.8.4z"/><path d="m28.11 46.78c-.47 0-.89-.33-.98-.81-.1-.54.25-1.07.8-1.17 4.96-.94 9.32-3.73 12.28-7.85.32-.45.95-.55 1.4-.23s.55.95.23 1.4c-3.26 4.54-8.07 7.61-13.53 8.65-.06.01-.13.02-.19.02z"/><path d="m7.16 14.87c-.19 0-.39-.06-.56-.17-.46-.31-.57-.93-.26-1.39 2.97-4.36 7.41-7.48 12.49-8.79.53-.13 1.08.18 1.22.72.14.53-.18 1.08-.72 1.22-4.61 1.19-8.64 4.02-11.34 7.98-.19.28-.51.44-.83.44z"/><path d="m7.16 14.87c-.23 0-.45-.08-.63-.23-.23-.19-.37-.47-.37-.77v-3.87c0-.55.45-1 1-1s1 .45 1 1v2.65l2.42-.49c.54-.11 1.07.24 1.18.78s-.24 1.07-.78 1.18l-3.62.74c-.07.01-.13.02-.2.02z"/><path d="m42.26 40.92c-.55 0-1-.45-1-1v-2.72l-3.09 1.02c-.53.18-1.09-.11-1.26-.64-.17-.52.11-1.09.64-1.26l4.4-1.45c.3-.1.64-.05.9.14s.41.49.41.81v4.1c0 .55-.45 1-1 1z"/></g></svg>