<svg viewBox="0 0 56.38 60.52" xmlns="http://www.w3.org/2000/svg"><g fill="#949b76"><path d="m48.54 31.94c-.55 0-1-.45-1-1v-20.94c0-1.1-.9-2-2-2h-1.91c-.55 0-1-.45-1-1s.45-1 1-1h1.91c2.21 0 4 1.79 4 4v20.94c0 .55-.45 1-1 1z"/><path d="m7.98 31.94c-.55 0-1-.45-1-1v-20.94c0-2.21 1.79-4 4-4h1.91c.55 0 1 .45 1 1s-.45 1-1 1h-1.91c-1.1 0-2 .9-2 2v20.94c0 .55-.45 1-1 1z"/><path d="m40.94 24c-.26 0-.51-.1-.71-.29l-1.5-1.5c-.39-.39-.39-1.02 0-1.41s1.02-.39 1.41 0l.79.79 2.29-2.29c.39-.39 1.02-.39 1.41 0s.39 1.02 0 1.41l-3 3c-.2.2-.45.29-.71.29z"/><path d="m35.94 23h-22.45c-.55 0-1-.45-1-1s.45-1 1-1h22.45c.55 0 1 .45 1 1s-.45 1-1 1z"/><path d="m40.94 30.22c-.26 0-.51-.1-.71-.29l-1.5-1.5c-.39-.39-.39-1.02 0-1.41s1.02-.39 1.41 0l.79.79 2.29-2.29c.39-.39 1.02-.39 1.41 0s.39 1.02 0 1.41l-3 3c-.2.2-.45.29-.71.29z"/><path d="m35.94 29.22h-22.45c-.55 0-1-.45-1-1s.45-1 1-1h22.45c.55 0 1 .45 1 1s-.45 1-1 1z"/><path d="m46.71 45.7c-3.28 0-5.95-2.67-5.95-5.95s2.67-5.95 5.95-5.95 5.95 2.67 5.95 5.95-2.67 5.95-5.95 5.95zm0-9.91c-2.18 0-3.95 1.77-3.95 3.95s1.77 3.95 3.95 3.95 3.95-1.77 3.95-3.95-1.77-3.95-3.95-3.95z"/><path d="m46.71 60.52c-2.69 0-5.31-.55-7.79-1.62-1.14-.49-1.87-1.62-1.87-2.88v-3.89c0-2.6 2.11-4.71 4.71-4.71h9.9c2.6 0 4.71 2.11 4.71 4.71v3.89c0 1.26-.74 2.39-1.87 2.88-2.48 1.08-5.1 1.62-7.79 1.62zm-4.95-11.11c-1.5 0-2.71 1.22-2.71 2.71v3.89c0 .46.26.87.67 1.05 4.45 1.93 9.54 1.93 13.99 0 .41-.18.67-.59.67-1.05v-3.89c0-1.5-1.22-2.71-2.71-2.71h-9.9z"/><path d="m41.75 59.84c-.55 0-1-.45-1-1v-4.25c0-.55.45-1 1-1s1 .45 1 1v4.25c0 .55-.45 1-1 1z"/><path d="m51.67 59.84c-.55 0-1-.45-1-1v-4.25c0-.55.45-1 1-1s1 .45 1 1v4.25c0 .55-.45 1-1 1z"/><path d="m9.67 45.7c-3.28 0-5.95-2.67-5.95-5.95s2.67-5.95 5.95-5.95 5.95 2.67 5.95 5.95-2.67 5.95-5.95 5.95zm0-9.91c-2.18 0-3.95 1.77-3.95 3.95s1.77 3.95 3.95 3.95 3.95-1.77 3.95-3.95-1.77-3.95-3.95-3.95z"/><path d="m9.67 60.52c-2.69 0-5.31-.55-7.79-1.62-1.14-.49-1.87-1.62-1.87-2.88v-3.89c0-2.6 2.11-4.71 4.71-4.71h9.9c2.6 0 4.71 2.11 4.71 4.71v3.89c0 1.26-.74 2.39-1.88 2.88-2.48 1.08-5.1 1.62-7.79 1.62zm-4.96-11.11c-1.5 0-2.71 1.22-2.71 2.71v3.89c0 .46.26.87.67 1.05 4.45 1.93 9.54 1.93 13.99 0 .41-.18.67-.59.67-1.05v-3.89c0-1.5-1.22-2.71-2.71-2.71z"/><path d="m4.71 59.84c-.55 0-1-.45-1-1v-4.25c0-.55.45-1 1-1s1 .45 1 1v4.25c0 .55-.45 1-1 1z"/><path d="m14.62 59.84c-.55 0-1-.45-1-1v-4.25c0-.55.45-1 1-1s1 .45 1 1v4.25c0 .55-.45 1-1 1z"/><path d="m33.81 40.09h-9.68c-.55 0-1-.45-1-1s.45-1 1-1h9.68c.55 0 1 .45 1 1s-.45 1-1 1z"/><path d="m26.28 42.24c-.19 0-.38-.05-.55-.17l-3.23-2.15c-.28-.19-.45-.5-.45-.83s.17-.65.45-.83l3.23-2.15c.46-.31 1.08-.18 1.39.28s.18 1.08-.28 1.39l-1.98 1.32 1.98 1.32c.46.31.58.93.28 1.39-.19.29-.51.45-.83.45z"/><path d="m32.73 49.41h-9.68c-.55 0-1-.45-1-1s.45-1 1-1h9.68c.55 0 1 .45 1 1s-.45 1-1 1z"/><path d="m30.58 51.56c-.32 0-.64-.16-.83-.45-.31-.46-.18-1.08.28-1.39l1.98-1.32-1.98-1.32c-.46-.31-.58-.93-.28-1.39.31-.46.92-.58 1.39-.28l3.22 2.15c.28.19.45.5.45.83s-.17.65-.45.83l-3.22 2.15c-.17.11-.36.17-.55.17z"/><path d="m18.44 17h20c1.65 0 3-1.35 3-3v-5c0-1.65-1.35-3-3-3h-2.26c-.45 0-.85-.31-.96-.75-.8-3.09-3.58-5.25-6.78-5.25s-5.98 2.16-6.78 5.25c-.11.44-.51.75-.96.75h-2.26c-1.65 0-3 1.35-3 3v5c0 1.65 1.35 3 3 3zm-1-8c0-.55.45-1 1-1h2.26c1.36 0 2.56-.93 2.9-2.25.57-2.21 2.56-3.75 4.84-3.75s4.27 1.54 4.84 3.75c.34 1.33 1.54 2.25 2.9 2.25h2.26c.55 0 1 .45 1 1v5c0 .55-.45 1-1 1h-20c-.55 0-1-.45-1-1z"/><path d="m28.44 10c1.65 0 3-1.35 3-3s-1.35-3-3-3-3 1.35-3 3 1.35 3 3 3zm0-4c.55 0 1 .45 1 1s-.45 1-1 1-1-.45-1-1 .45-1 1-1z"/></g></svg>