<svg viewBox="0 0 56.98 56.95" xmlns="http://www.w3.org/2000/svg"><g fill="#949b76"><path d="m28.49 37c-4.23 0-7.66-3.44-7.66-7.66s3.44-7.66 7.66-7.66 7.66 3.44 7.66 7.66-3.44 7.66-7.66 7.66zm0-13.32c-3.12 0-5.66 2.54-5.66 5.66s2.54 5.66 5.66 5.66 5.66-2.54 5.66-5.66-2.54-5.66-5.66-5.66z"/><path d="m28.49 56.95c-3.57 0-7.05-.72-10.35-2.15-1.41-.61-2.31-2.01-2.31-3.56v-5.24c0-3.31 2.69-6 6-6h13.33c3.31 0 6 2.69 6 6v5.24c0 1.55-.91 2.95-2.31 3.56-3.3 1.43-6.78 2.15-10.35 2.15zm-6.66-14.95c-2.2 0-4 1.79-4 4v5.24c0 .76.44 1.43 1.11 1.73 6.08 2.64 13.02 2.64 19.1 0 .67-.29 1.11-.97 1.11-1.73v-5.24c0-2.2-1.79-4-4-4h-13.33z"/><path d="m21.82 56.04c-.55 0-1-.45-1-1v-5.71c0-.55.45-1 1-1s1 .45 1 1v5.71c0 .55-.45 1-1 1z"/><path d="m35.16 56.04c-.55 0-1-.45-1-1v-5.71c0-.55.45-1 1-1s1 .45 1 1v5.71c0 .55-.45 1-1 1z"/><path d="m28.49 16.44c-.55 0-1-.45-1-1v-13.02c0-.55.45-1 1-1s1 .45 1 1v13.02c0 .55-.45 1-1 1z"/><path d="m31.38 6.31c-.32 0-.64-.16-.83-.45l-2.06-3.09-2.06 3.09c-.31.46-.93.58-1.39.28-.46-.31-.58-.93-.28-1.39l2.9-4.33c.37-.56 1.29-.56 1.66 0l2.89 4.34c.31.46.18 1.08-.28 1.39-.17.11-.36.17-.55.17z"/><path d="m15.47 29.46h-13.02c-.55 0-1-.45-1-1s.45-1 1-1h13.02c.55 0 1 .45 1 1s-.45 1-1 1z"/><path d="m5.34 32.36c-.19 0-.38-.05-.55-.17l-4.34-2.9c-.28-.19-.45-.5-.45-.83s.17-.65.45-.83l4.34-2.89c.46-.31 1.08-.18 1.39.28s.18 1.08-.28 1.39l-3.09 2.06 3.09 2.06c.46.31.58.93.28 1.39-.19.29-.51.45-.83.45z"/><path d="m54.53 29.46h-13.02c-.55 0-1-.45-1-1s.45-1 1-1h13.02c.55 0 1 .45 1 1s-.45 1-1 1z"/><path d="m51.64 32.36c-.32 0-.64-.16-.83-.45-.31-.46-.18-1.08.28-1.39l3.09-2.06-3.09-2.06c-.46-.31-.58-.93-.28-1.39.31-.46.92-.58 1.39-.28l4.34 2.89c.28.19.45.5.45.83s-.17.65-.45.83l-4.34 2.89c-.17.11-.36.17-.55.17z"/><path d="m39.96 17.89c-.26 0-.51-.1-.71-.29-.39-.39-.39-1.02 0-1.41l9.21-9.21c.39-.39 1.02-.39 1.41 0s.39 1.02 0 1.41l-9.21 9.21c-.2.2-.45.29-.71.29z"/><path d="m49.17 12.77c-.06 0-.13 0-.2-.02-.54-.11-.89-.63-.78-1.18l.73-3.64-3.64.73c-.54.11-1.07-.24-1.18-.78s.24-1.07.78-1.18l5.12-1.02c.33-.06.67.04.9.27.24.24.34.58.27.9l-1.02 5.12c-.09.48-.51.8-.98.8z"/><path d="m16.92 17.89c-.26 0-.51-.1-.71-.29l-9.21-9.21c-.39-.39-.39-1.02 0-1.41s1.02-.39 1.41 0l9.21 9.21c.39.39.39 1.02 0 1.41-.2.2-.45.29-.71.29z"/><path d="m7.71 12.77c-.47 0-.88-.33-.98-.8l-1.02-5.12c-.07-.33.04-.67.27-.9.24-.24.58-.34.9-.27l5.12 1.02c.54.11.89.63.78 1.18s-.64.89-1.18.78l-3.64-.73.73 3.64c.11.54-.24 1.07-.78 1.18-.07.01-.13.02-.2.02z"/></g></svg>