<svg viewBox="0 0 58.16 65.27" xmlns="http://www.w3.org/2000/svg"><g fill="#949b76"><path d="m52.73 60.84h-14.77c-.55 0-1-.45-1-1s.45-1 1-1h14.77c1.89 0 3.43-1.54 3.43-3.43v-39.89c0-1.89-1.54-3.43-3.43-3.43h-2.91c-.55 0-1-.45-1-1s.45-1 1-1h2.91c3 0 5.43 2.44 5.43 5.43v39.88c0 3-2.44 5.43-5.43 5.43z"/><path d="m11.94 22.43c-.55 0-1-.45-1-1v-5.91c0-3 2.44-5.43 5.43-5.43h2.91c.55 0 1 .45 1 1s-.45 1-1 1h-2.91c-1.89 0-3.43 1.54-3.43 3.43v5.91c0 .55-.45 1-1 1z"/><path d="m45.34 26.86c-.27 0-.52-.11-.71-.29l-2.21-2.22c-.39-.39-.39-1.02 0-1.41s1.02-.39 1.41 0l1.51 1.51 3.72-3.72c.39-.39 1.02-.39 1.41 0s.39 1.02 0 1.41l-4.43 4.43c-.19.19-.44.29-.71.29z"/><path d="m37.96 25.39h-7.39c-.55 0-1-.45-1-1s.45-1 1-1h7.39c.55 0 1 .45 1 1s-.45 1-1 1z"/><path d="m45.34 35.73c-.26 0-.51-.1-.71-.29l-2.95-2.95c-.39-.39-.39-1.02 0-1.41s1.02-.39 1.41 0l2.25 2.25 3.72-3.72c.39-.39 1.02-.39 1.41 0s.39 1.02 0 1.41l-4.43 4.43c-.2.2-.45.29-.71.29z"/><path d="m37.96 34.25h-2.95c-.55 0-1-.45-1-1s.45-1 1-1h2.95c.55 0 1 .45 1 1s-.45 1-1 1z"/><path d="m45.34 44.59c-.26 0-.51-.1-.71-.29l-2.95-2.95c-.39-.39-.39-1.02 0-1.41s1.02-.39 1.41 0l2.25 2.25 3.72-3.72c.39-.39 1.02-.39 1.41 0s.39 1.02 0 1.41l-4.43 4.43c-.2.2-.45.29-.71.29z"/><path d="m37.96 43.11h-4.43c-.55 0-1-.45-1-1s.45-1 1-1h4.43c.55 0 1 .45 1 1s-.45 1-1 1z"/><path d="m45.34 53.45c-.27 0-.52-.11-.71-.29l-2.95-2.96c-.39-.39-.39-1.02 0-1.41s1.02-.39 1.41 0l2.25 2.25 3.72-3.72c.39-.39 1.02-.39 1.41 0s.39 1.02 0 1.41l-4.43 4.43c-.19.19-.44.29-.71.29z"/><path d="m37.96 51.98h-5.91c-.55 0-1-.45-1-1s.45-1 1-1h5.91c.55 0 1 .45 1 1s-.45 1-1 1z"/><path d="m1 65.27c-.17 0-.34-.04-.5-.13-.48-.28-.64-.89-.36-1.37 2.81-4.86 8.05-7.88 13.66-7.88.55 0 1 .45 1 1s-.45 1-1 1c-4.9 0-9.47 2.64-11.93 6.89-.18.32-.52.5-.87.5z"/><path d="m35.46 65.27c-.35 0-.68-.18-.87-.5-2.46-4.25-7.03-6.89-11.93-6.89-.55 0-1-.45-1-1s.45-1 1-1c5.61 0 10.85 3.02 13.66 7.88.28.48.11 1.09-.36 1.37-.16.09-.33.13-.5.13z"/><path d="m22.65 57.88c-.55 0-1-.45-1-1v-3.96c0-.55.45-1 1-1s1 .45 1 1v3.96c0 .55-.45 1-1 1z"/><path d="m13.79 57.88c-.55 0-1-.45-1-1v-3.96c0-.55.45-1 1-1s1 .45 1 1v3.96c0 .55-.45 1-1 1z"/><path d="m18.22 54.93c-1.71 0-3.35-.37-4.87-1.1-1.16-.54-2.22-1.29-3.15-2.22-2.14-2.14-3.32-4.99-3.32-8.02v-7.39c0-.55.45-1 1-1s1 .45 1 1v7.39c0 2.5.97 4.84 2.74 6.61.76.76 1.64 1.38 2.59 1.82 1.26.61 2.6.91 4.01.91 1.11 0 2.17-.18 3.14-.54.29-.11.57-.21.83-.35 3.33-1.57 5.37-4.8 5.37-8.45v-7.39c0-.55.45-1 1-1s1 .45 1 1v7.39c0 4.43-2.48 8.35-6.48 10.24-.33.18-.69.31-1.03.43-1.19.44-2.48.67-3.83.67z"/><path d="m30.01 37.2h-2.01c-2.75 0-5.39-1.31-7.06-3.51l-.42-.56c-2.19 2.57-5.39 4.06-8.82 4.06h-5.34c-.48 0-.9-.34-.98-.82-.72-3.9.71-7.9 3.71-10.44 3.1-2.62 7.52-3.29 11.31-1.74 1.5.07 4.86.57 7.58 3.42 3.21 3.36 3.13 7.49 3.02 8.67-.04.52-.48.91-1 .91zm-9.49-6.72c.31 0 .61.15.8.4l1.22 1.61c1.29 1.7 3.33 2.71 5.47 2.71h1.03c-.04-1.42-.43-4.03-2.5-6.2-2.4-2.51-5.49-2.79-6.38-2.81-.13 0-.25-.03-.37-.08-3.14-1.35-6.83-.81-9.41 1.36-2.25 1.9-3.41 4.8-3.14 7.73h4.47c3.22 0 6.2-1.6 7.98-4.27.18-.27.48-.43.8-.45z"/><path d="m18.23 49.02c-2.24 0-3.52-1.56-3.76-1.88-.33-.44-.24-1.07.2-1.4.45-.33 1.07-.24 1.4.2.08.11.84 1.08 2.15 1.08.14 0 1.37-.03 2.15-1.08.33-.44.96-.53 1.4-.2s.53.96.2 1.4c-1.34 1.79-3.36 1.88-3.75 1.88z"/><path d="m13.8 64.66c-.63 0-1.27-.24-1.75-.72l-4.86-4.86c-.39-.39-.39-1.02 0-1.41s1.02-.39 1.41 0l4.86 4.86c.19.18.49.19.67 0l2.52-2.52-3.42-2.28c-.46-.31-.58-.93-.28-1.39s.93-.58 1.39-.28l4.43 2.95c.25.17.41.44.44.73s-.08.59-.29.81l-3.39 3.39c-.48.48-1.12.72-1.75.72z"/><path d="m22.66 64.66c-.63 0-1.27-.24-1.75-.72l-3.39-3.39c-.21-.21-.32-.51-.29-.81s.19-.57.44-.73l4.43-2.95c.46-.31 1.08-.18 1.39.28s.18 1.08-.28 1.39l-3.42 2.28 2.52 2.52c.19.19.49.18.67 0l4.86-4.86c.39-.39 1.02-.39 1.41 0s.39 1.02 0 1.41l-4.86 4.86c-.48.48-1.12.72-1.75.72z"/><path d="m24.57 17h20c1.65 0 3-1.35 3-3v-5c0-1.65-1.35-3-3-3h-2.26c-.45 0-.85-.31-.96-.75-.8-3.09-3.58-5.25-6.78-5.25s-5.98 2.16-6.78 5.25c-.11.44-.51.75-.96.75h-2.26c-1.65 0-3 1.35-3 3v5c0 1.65 1.35 3 3 3zm-1-8c0-.55.45-1 1-1h2.26c1.36 0 2.56-.93 2.9-2.25.57-2.21 2.56-3.75 4.84-3.75s4.27 1.54 4.84 3.75c.34 1.33 1.54 2.25 2.9 2.25h2.26c.55 0 1 .45 1 1v5c0 .55-.45 1-1 1h-20c-.55 0-1-.45-1-1z"/><path d="m34.57 10c1.65 0 3-1.35 3-3s-1.35-3-3-3-3 1.35-3 3 1.35 3 3 3zm0-4c.55 0 1 .45 1 1s-.45 1-1 1-1-.45-1-1 .45-1 1-1z"/></g></svg>