<svg viewBox="0 0 55.52 61.87" xmlns="http://www.w3.org/2000/svg"><g fill="#949b76"><path d="m52.41 23.89-3.61-2.32c-.5-.32-.8-.87-.8-1.47v-10.56c1.18-.27 2.07-1.33 2.07-2.59v-4.29c0-1.47-1.19-2.66-2.66-2.66h-11.07c-1.47 0-2.66 1.19-2.66 2.66v4.29c0 1.26.89 2.32 2.07 2.59v10.56c0 .6-.3 1.15-.8 1.47l-3.61 2.32c-1.94 1.26-3.1 3.38-3.1 5.69v27.87c0 2.44 1.98 4.42 4.42 4.42h18.44c2.44 0 4.42-1.98 4.42-4.42v-27.87c0-2.31-1.16-4.44-3.1-5.69zm-16.73-21.23c0-.36.3-.66.66-.66h11.07c.36 0 .66.3.66.66v4.29c0 .36-.3.66-.66.66h-11.07c-.36 0-.66-.3-.66-.66zm-.3 57.21v-26.62c0-1.42 1.15-2.57 2.57-2.57h7.86c1.42 0 2.57 1.15 2.57 2.57v26.62zm18.14-2.42c0 1.34-1.09 2.42-2.42 2.42h-.72v-26.62c0-2.52-2.05-4.57-4.57-4.57h-7.86c-2.52 0-4.57 2.05-4.57 4.57v26.62h-.72c-1.33 0-2.42-1.09-2.42-2.42v-27.87c0-1.63.82-3.13 2.18-4.01l3.61-2.32c1.08-.69 1.72-1.87 1.72-3.16v-10.49h8.26v10.49c0 1.28.64 2.46 1.72 3.16l3.6 2.31c1.37.89 2.19 2.39 2.19 4.01v27.87z"/><path d="m23.92 1.99h-19.72c-2.32 0-4.2 1.89-4.2 4.2v15.99c0 2.31 1.88 4.2 4.2 4.2h10.17l6.51 5.49c.18.16.41.24.64.24.14 0 .29-.03.42-.09.35-.16.58-.52.58-.91v-4.72h1.4c2.31 0 4.2-1.88 4.2-4.2v-16c0-2.31-1.88-4.2-4.2-4.2zm2.2 20.19c0 1.21-.99 2.2-2.2 2.2h-2.4c-.55 0-1 .45-1 1v3.57s-5.15-4.34-5.15-4.34c-.18-.15-.41-.24-.64-.24h-10.53c-1.21 0-2.2-.99-2.2-2.2v-15.98c0-1.21.99-2.2 2.2-2.2h19.72c1.21 0 2.2.99 2.2 2.2z"/><path d="m8.22 8.35c-3 3-3 7.88 0 10.88 1.5 1.5 3.47 2.25 5.44 2.25s3.94-.75 5.44-2.25c3-3 3-7.88 0-10.88s-7.88-3-10.88 0zm1.41 1.41c1.11-1.11 2.57-1.67 4.03-1.67 1.14 0 2.27.35 3.25 1.03l-7.91 7.91c-1.55-2.22-1.34-5.3.64-7.27zm8.05 8.05c-1.98 1.98-5.05 2.18-7.27.64l7.91-7.91c1.55 2.22 1.34 5.3-.64 7.27z"/><path d="m41.88 32.47c-2.7 0-4.9 2.2-4.9 4.9s2.2 4.9 4.9 4.9 4.9-2.2 4.9-4.9-2.2-4.9-4.9-4.9zm0 7.79c-1.6 0-2.9-1.3-2.9-2.9s1.3-2.9 2.9-2.9 2.9 1.3 2.9 2.9-1.3 2.9-2.9 2.9z"/><path d="m45.77 44.83h-7.79c-.55 0-1 .45-1 1s.45 1 1 1h7.79c.55 0 1-.45 1-1s-.45-1-1-1z"/><path d="m45.77 49.39h-7.79c-.55 0-1 .45-1 1s.45 1 1 1h7.79c.55 0 1-.45 1-1s-.45-1-1-1z"/><path d="m45.77 53.95h-7.79c-.55 0-1 .45-1 1s.45 1 1 1h7.79c.55 0 1-.45 1-1s-.45-1-1-1z"/></g></svg>