<svg viewBox="0 0 50.91 56.96" xmlns="http://www.w3.org/2000/svg"><g fill="#949b76"><path d="m45.84 56.96c-1.68 0-3.08-1.26-3.27-2.93l-1.22-10.98c-.03-.28.06-.57.25-.78s.46-.33.75-.33h5.79c.55 0 1 .45 1 1v10.73c0 1.81-1.48 3.29-3.29 3.29zm-2.38-13.02 1.1 9.87c.07.65.62 1.15 1.28 1.15.71 0 1.29-.58 1.29-1.29v-9.73z"/><path d="m9.41 30.93c-2.94 0-5.34-2.39-5.34-5.34s2.39-5.34 5.34-5.34 5.34 2.39 5.34 5.34-2.39 5.34-5.34 5.34zm0-8.68c-1.84 0-3.34 1.5-3.34 3.34s1.5 3.34 3.34 3.34 3.34-1.5 3.34-3.34-1.5-3.34-3.34-3.34z"/><path d="m38.34 38.16h-24.59v-2h24.59c1.04 0 1.89-.85 1.89-1.89s-.85-1.89-1.89-1.89h-14.88v-2h14.88c2.15 0 3.89 1.75 3.89 3.89s-1.75 3.89-3.89 3.89z"/><path d="m7.02 32.67-.64-1.04-.72-1.19 1.72-1.03 1.3 2.16z"/><path d="m19.13 29.41-.09-.06c-2.07-1.3-4.16-1.38-5.22-1.32l-.13-2c1.3-.09 3.87.01 6.38 1.6.1.06.2.12.28.18l-1.21 1.59z"/><path d="m46.88 43.94h-35.09c-2.88 0-5.58-1.53-7.06-4l-4.22-7.03c-.67-1.12-.69-2.47-.05-3.61.65-1.14 1.81-1.82 3.12-1.82 1.07 0 2.07.47 2.76 1.29l5.16 6.19c.64.76 1.57 1.2 2.56 1.2h32.81c2.07 0 3.76 1.69 3.76 3.76v.26c0 2.07-1.69 3.76-3.76 3.76zm-43.28-14.46c-.58 0-1.1.3-1.38.81-.29.5-.28 1.1.02 1.6l4.22 7.03c1.12 1.87 3.17 3.03 5.34 3.03h35.09c.97 0 1.76-.79 1.76-1.76v-.26c0-.97-.79-1.76-1.76-1.76h-32.82c-1.59 0-3.08-.7-4.1-1.92l-5.15-6.18c-.3-.36-.75-.57-1.22-.57z"/><path d="m9.14 56.96c-1.02 0-1.94-.47-2.54-1.3s-.75-1.85-.43-2.82l3.4-10.21c.14-.41.52-.68.95-.68h5.79c.34 0 .65.17.84.46.18.28.21.64.08.95l-5.22 11.75c-.5 1.13-1.62 1.86-2.86 1.86zm2.11-13.02-3.18 9.53c-.12.35-.06.72.16 1.02.48.66 1.62.54 1.95-.2l4.6-10.35z"/><path d="m11.97 50.62h31.82v2h-31.82z"/><path d="m13.75 38.16c-.52 0-.96-.41-1-.94-.04-.55.38-1.03.93-1.06 1.42-.09 4.17-.56 6.65-2.66 2.47-2.09 3.43-4.74 3.8-6.6.08-.42-.13-.85-.52-1.05-.45-.23-1.01-.06-1.26.37l-2.2 3.66c-.91 1.52-2.35 2.61-4.06 3.06l-2.08.56c-.53.15-1.08-.17-1.22-.71s.17-1.08.71-1.22l2.08-.56c1.21-.32 2.22-1.09 2.87-2.16l2.2-3.66c.79-1.32 2.49-1.82 3.87-1.13 1.2.6 1.85 1.93 1.59 3.23-.43 2.17-1.56 5.27-4.46 7.74-2.91 2.47-6.15 3.02-7.81 3.13-.02 0-.04 0-.07 0z"/><path d="m31.11 23.69c-.17 0-.35-.04-.51-.14-.36-.21-.55-.62-.48-1.03l.77-4.62h-1.23c-2.15 0-3.89-1.75-3.89-3.89v-10.12c0-2.15 1.75-3.89 3.89-3.89h17.36c2.15 0 3.89 1.75 3.89 3.89v10.12c0 2.15-1.75 3.89-3.89 3.89h-8.33l-6.96 5.57c-.18.14-.4.22-.62.22zm-1.45-21.69c-1.04 0-1.89.85-1.89 1.89v10.12c0 1.04.85 1.89 1.89 1.89h2.41c.29 0 .57.13.76.35s.27.52.22.81l-.53 3.21 5.19-4.15c.18-.14.4-.22.62-.22h8.68c1.04 0 1.89-.85 1.89-1.89v-10.12c0-1.04-.85-1.89-1.89-1.89h-17.36z"/></g></svg>