<svg viewBox="0 0 58 60" xmlns="http://www.w3.org/2000/svg"><g fill="#949b76"><path d="m30 58h-25c-1.65 0-3-1.35-3-3v-39h9c2.76 0 5-2.24 5-5v-9h23c1.65 0 3 1.35 3 3v21c0 .55.45 1 1 1s1-.45 1-1v-21c0-2.76-2.24-5-5-5h-24c-.27 0-.52.11-.71.29l-14 14c-.19.19-.29.44-.29.71v40c0 2.76 2.24 5 5 5h25c.55 0 1-.45 1-1s-.45-1-1-1zm-16-54.59v7.59c0 1.65-1.35 3-3 3h-7.59z"/><path d="m39 58c-3.86 0-7-3.14-7-7v-6h7c.55 0 1-.45 1-1s-.45-1-1-1h-7v-6c0-3.86 3.14-7 7-7s7 3.14 7 7v2c0 .55.45 1 1 1s1-.45 1-1v-2c0-4.96-4.04-9-9-9s-9 4.04-9 9v14c0 4.96 4.04 9 9 9 .55 0 1-.45 1-1s-.45-1-1-1z"/><path d="m55.36 44.64c-1.7-1.7-3.96-2.64-6.36-2.64s-4.66.94-6.36 2.64-2.64 3.96-2.64 6.36.94 4.66 2.64 6.36 3.96 2.64 6.36 2.64 4.66-.94 6.36-2.64 2.64-3.96 2.64-6.36-.94-4.66-2.64-6.36zm-11.31 11.31c-1.32-1.32-2.05-3.08-2.05-4.95 0-1.53.5-2.98 1.4-4.19l9.79 9.79c-1.2.9-2.66 1.4-4.19 1.4-1.87 0-3.63-.73-4.95-2.05zm10.55-.76-9.79-9.79c1.2-.9 2.66-1.4 4.19-1.4 1.87 0 3.63.73 4.95 2.05s2.05 3.08 2.05 4.95c0 1.53-.5 2.98-1.4 4.19z"/><path d="m30.15 25.53c.18.29.5.47.85.47h4c.55 0 1-.45 1-1s-.45-1-1-1h-3.45l-4.71-7.53c-.37-.58-1.33-.58-1.7 0l-4.25 6.8-3.12-3.9c-.38-.47-1.18-.47-1.56 0l-3.7 4.62h-3.52c-.55 0-1 .45-1 1s.45 1 1 1h4c.3 0 .59-.14.78-.38l3.22-4.02 3.22 4.02c.2.25.51.39.84.37.32-.02.62-.19.79-.47l4.15-6.64 4.15 6.64z"/><path d="m23 32h-14c-.55 0-1 .45-1 1s.45 1 1 1h14c.55 0 1-.45 1-1s-.45-1-1-1z"/><path d="m23 40h-14c-.55 0-1 .45-1 1s.45 1 1 1h14c.55 0 1-.45 1-1s-.45-1-1-1z"/><path d="m23 48h-14c-.55 0-1 .45-1 1s.45 1 1 1h14c.55 0 1-.45 1-1s-.45-1-1-1z"/></g></svg>