<svg viewBox="0 0 58 58" xmlns="http://www.w3.org/2000/svg"><g fill="#949b76"><path d="m45.93 16.99c-2.18-2.23-5.08-3.45-8.17-3.45s-5.99 1.23-8.16 3.45c-.21.21-.41.43-.6.66-.19-.23-.39-.45-.6-.66-2.18-2.23-5.08-3.45-8.16-3.45-3.09 0-5.99 1.23-8.17 3.45-3.96 4.05-4.42 10.34-1.38 14.91h-1.03c-.53 0-.97.43-.97.97s.43.97.97.97h2.62l16.02 16.15c.18.18.43.29.69.29s.5-.1.69-.29l16.24-16.37c.23-.24.45-.49.66-.75h1.75c.53 0 .97-.43.97-.97s-.43-.97-.97-.97h-.45c2.38-4.46 1.74-10.17-1.96-13.95zm-32.48 1.35c1.81-1.85 4.22-2.87 6.78-2.87s4.97 1.02 6.78 2.87c.43.43.82.93 1.17 1.46.18.27.48.43.81.43.32 0 .63-.16.81-.43.35-.54.75-1.03 1.17-1.46 1.81-1.85 4.22-2.87 6.78-2.87s4.97 1.02 6.78 2.87c3.35 3.42 3.7 8.76 1.08 12.59h-6.96c-.3 0-.59.14-.77.39l-1.68 2.24-2.41-9.63c-.1-.41-.46-.71-.88-.73s-.81.23-.96.62l-2.66 7.11h-2.23c-.4 0-.75.24-.9.61l-.79 1.97-2.21-9.56c-.09-.4-.44-.71-.85-.74-.41-.04-.81.19-.98.57l-3.61 8.13h-4.6c-3.42-3.86-3.32-9.84.32-13.56zm15.55 29.59-13.99-14.09h3.35c.38 0 .73-.22.88-.57l2.69-6.06 2.25 9.75c.1.41.45.71.87.75h.07c.39 0 .75-.24.9-.61l1.69-4.23h2.25c.4 0 .76-.25.91-.63l1.81-4.83 2.15 8.59c.09.36.38.64.75.71s.74-.07.96-.37l2.61-3.48h4.8l-14.95 15.06z"/><path d="m58 10.63v-7.73c0-1.6-1.3-2.9-2.9-2.9h-7.73c-1.6 0-2.9 1.3-2.9 2.9v1.59c-4.63-2.94-9.93-4.49-15.47-4.49s-10.84 1.55-15.47 4.49v-1.59c0-1.6-1.3-2.9-2.9-2.9h-7.73c-1.6-0-2.9 1.3-2.9 2.9v7.73c0 1.6 1.3 2.9 2.9 2.9h1.59c-2.94 4.63-4.49 9.93-4.49 15.47s1.55 10.84 4.49 15.47h-1.59c-1.6 0-2.9 1.3-2.9 2.9v7.73c0 1.6 1.3 2.9 2.9 2.9h7.73c1.6 0 2.9-1.3 2.9-2.9v-1.59c4.63 2.93 9.93 4.49 15.47 4.49s10.84-1.55 15.47-4.49v1.59c0 1.6 1.3 2.9 2.9 2.9h7.73c1.6 0 2.9-1.3 2.9-2.9v-7.73c0-1.6-1.3-2.9-2.9-2.9h-1.59c2.93-4.63 4.49-9.93 4.49-15.47s-1.55-10.84-4.49-15.47h1.59c1.6 0 2.9-1.3 2.9-2.9zm-11.6-7.73c0-.53.43-.97.97-.97h7.73c.53 0 .97.43.97.97v7.73c0 .53-.43.97-.97.97h-7.73c-.53 0-.97-.43-.97-.97zm-44.47 7.73v-7.73c0-.53.43-.97.97-.97h7.73c.53 0 .97.43.97.97v7.73c0 .53-.43.97-.97.97h-7.73c-.53 0-.97-.43-.97-.97zm9.67 44.47c0 .53-.43.97-.97.97h-7.73c-.53 0-.97-.43-.97-.97v-7.73c0-.53.43-.97.97-.97h7.73c.53 0 .97.43.97.97zm44.47-7.73v7.73c0 .53-.43.97-.97.97h-7.73c-.53 0-.97-.43-.97-.97v-7.73c0-.53.43-.97.97-.97h7.73c.53 0 .97.43.97.97zm0-18.37c0 5.58-1.69 10.92-4.88 15.47h-3.82c-1.6 0-2.9 1.3-2.9 2.9v3.82c-4.55 3.18-9.88 4.88-15.47 4.88s-10.92-1.69-15.47-4.88v-3.82c0-1.6-1.3-2.9-2.9-2.9h-3.82c-3.18-4.55-4.88-9.88-4.88-15.47s1.69-10.92 4.88-15.47h3.82c1.6 0 2.9-1.3 2.9-2.9v-3.82c4.55-3.18 9.88-4.88 15.47-4.88s10.92 1.69 15.47 4.88v3.82c0 1.6 1.3 2.9 2.9 2.9h3.82c3.18 4.55 4.88 9.88 4.88 15.47z"/></g></svg>