<svg height="19.762" viewBox="0 0 25.408 19.762" width="25.408" xmlns="http://www.w3.org/2000/svg" xmlns:xlink="http://www.w3.org/1999/xlink"><g fill="#949b76"><path d="m23.772 6.163h-10.2l-1.246-1.245v-3.157a.88.88 0 1 0 -1.761 0v1.4l-2.9-2.9a.879.879 0 0 0 -1.245 0l-4.4 4.4-1.762 1.76a.88.88 0 1 0 1.242 1.245l.258-.258v11.081a.881.881 0 0 0 .88.88h19.37a.881.881 0 0 0 .88-.88v-10.565h.88a.88.88 0 0 0 0-1.761m-15.844 11.446h-1.761v-3.522h1.761zm13.207 0h-11.446v-4.4a.881.881 0 0 0 -.88-.88h-3.522a.881.881 0 0 0 -.88.88v4.4h-.88v-11.962l3.521-3.522 3.78 3.78 1.761 1.761a.878.878 0 0 0 .622.258h7.924z" transform="translate(.378 .196)"/><path d="m9.4 6h-3.52a.881.881 0 0 0 -.88.88v3.52a.881.881 0 0 0 .88.88h3.52a.881.881 0 0 0 .88-.88v-3.52a.881.881 0 0 0 -.88-.88m-.88 3.522h-1.759v-1.761h1.761z" transform="translate(-.22 -.521)"/><path d="m16.88 16.283h4.4a.881.881 0 0 0 .88-.88v-3.523a.881.881 0 0 0 -.88-.88h-4.4a.881.881 0 0 0 -.88.88v3.52a.881.881 0 0 0 .88.88m.88-3.522h2.64v1.761h-2.639z" transform="translate(-1.535 -1.119)"/></g></svg>