<svg height="22.226" viewBox="0 0 22.226 22.226" width="22.226" xmlns="http://www.w3.org/2000/svg" xmlns:xlink="http://www.w3.org/1999/xlink"><path d="m18.971 3.255a11.112 11.112 0 1 0 -15.716 15.716 11.112 11.112 0 1 0 15.716-15.716m-.634 13.874-6.015-6.016 2.04-2.04a12.321 12.321 0 0 0 6.114 2.851 9.31 9.31 0 0 1 -2.139 5.205m-16.583-5.095a10.661 10.661 0 0 1 4.894 2.335l-2.759 2.76a9.321 9.321 0 0 1 -2.135-5.095m2.135-6.934 6.011 6.013-2.042 2.047a12.4 12.4 0 0 0 -6.108-2.86 9.309 9.309 0 0 1 2.139-5.2m10.48 1.55a10.658 10.658 0 0 1 -2.335-4.893 9.311 9.311 0 0 1 5.095 2.134zm-1.209 1.208-2.047 2.042-6.013-6.011a9.309 9.309 0 0 1 5.2-2.139 12.4 12.4 0 0 0 2.86 6.108m-5.3 7.718a10.607 10.607 0 0 1 2.321 4.9 9.3 9.3 0 0 1 -5.081-2.139zm1.212-1.212 2.041-2.041 6.016 6.015a9.3 9.3 0 0 1 -5.207 2.141 12.292 12.292 0 0 0 -2.851-6.114m6.5-6.5 2.766-2.765a9.31 9.31 0 0 1 2.134 5.083 10.607 10.607 0 0 1 -4.9-2.322" fill="#949b76"/></svg>