<svg height="22.494" viewBox="0 0 22.494 22.494" width="22.494" xmlns="http://www.w3.org/2000/svg" xmlns:xlink="http://www.w3.org/1999/xlink"><path d="m21.8 4.952-4.258-4.252a2.39 2.39 0 0 0 -3.375 0 2.356 2.356 0 0 0 -.53.813 2.38 2.38 0 0 0 -2.3 3.982l1.141 1.145-5.839 5.838-1.146-1.148a2.445 2.445 0 0 0 -3.376 0 2.328 2.328 0 0 0 -.608 2.307 2.387 2.387 0 0 0 -.809 3.906l4.252 4.252a2.382 2.382 0 0 0 3.906-.808 2.408 2.408 0 0 0 .619.091 2.386 2.386 0 0 0 1.686-4.078l-1.147-1.148 5.838-5.838 1.146 1.149a2.387 2.387 0 0 0 4.077-1.689 2.34 2.34 0 0 0 -.091-.616 2.369 2.369 0 0 0 .81-.53 2.393 2.393 0 0 0 0-3.376m-6.379-3a.619.619 0 0 1 .876 0l4.253 4.248a.621.621 0 0 1 0 .877.633.633 0 0 1 -.876 0l-4.259-4.26a.617.617 0 0 1 .006-.871m-8.34 18.6a.63.63 0 0 1 -.876 0l-4.252-4.253a.62.62 0 1 1 .876-.877l4.252 4.252a.62.62 0 0 1 0 .877m2.836-1.418a.632.632 0 0 1 -.877 0l-5.669-5.671a.619.619 0 1 1 .876-.876l1.772 1.772 2.127 2.126 1.772 1.772a.619.619 0 0 1 0 .876m4.686-10.36-5.834 5.834-.877-.877 5.839-5.838.438.438zm4.524 1.147a.633.633 0 0 1 -.876 0l-5.667-5.671a.62.62 0 0 1 .877-.877l.7.7v.006l4.253 4.253.708.708a.619.619 0 0 1 0 .876" fill="#949b76"/></svg>