<svg height="22.511" viewBox="0 0 25.084 22.511" width="25.084" xmlns="http://www.w3.org/2000/svg" xmlns:xlink="http://www.w3.org/1999/xlink"><g fill="#949b76"><path d="m1.4 18.548a9.716 9.716 0 0 1 4.7-1.182 7.533 7.533 0 0 1 2.9.589 9.316 9.316 0 0 0 7.072 0 7.545 7.545 0 0 1 2.9-.589 10.358 10.358 0 0 1 4.7 1.182.965.965 0 1 0 .875-1.721 12.162 12.162 0 0 0 -5.587-1.391c-.116 0-.207.015-.318.019v-12.561a.965.965 0 1 1 1.93 0v.643a.965.965 0 1 0 1.93 0v-.643a2.894 2.894 0 1 0 -5.789 0v12.832c-.481.126-.909.273-1.3.417a7.42 7.42 0 0 1 -5.753 0 9.483 9.483 0 0 0 -3.55-.706c-.109 0-.217.017-.327.021v-1.95h8.04a.965.965 0 0 0 0-1.93h-8.035v-3.217h8.04a.965.965 0 0 0 0-1.93h-8.04v-3.537a.965.965 0 1 1 1.93 0v.643a.965.965 0 1 0 1.93 0v-.643a2.894 2.894 0 1 0 -5.789 0v12.788a12.816 12.816 0 0 0 -3.332 1.145.965.965 0 0 0 .873 1.721"/><path d="m24.556 16.391a12.492 12.492 0 0 0 -5.586-1.391 9.485 9.485 0 0 0 -3.552.706 7.42 7.42 0 0 1 -5.753 0 9.483 9.483 0 0 0 -3.55-.706 11.783 11.783 0 0 0 -5.588 1.391.965.965 0 0 0 .873 1.721 10.251 10.251 0 0 1 4.665-1.182h.041a7.533 7.533 0 0 1 2.9.589 9.316 9.316 0 0 0 7.072 0 7.545 7.545 0 0 1 2.9-.589 10.577 10.577 0 0 1 4.7 1.182.965.965 0 0 0 .875-1.721" transform="translate(0 4.295)"/></g></svg>