<svg height="16.297" viewBox="0 0 22.469 16.297" width="22.469" xmlns="http://www.w3.org/2000/svg" xmlns:xlink="http://www.w3.org/1999/xlink"><path d="m22.37 4.93a.9.9 0 0 0 -.767-.766 10.72 10.72 0 0 0 -6.317 1.242 9.8 9.8 0 0 0 -3.555-5.224.9.9 0 0 0 -1.083 0 10.532 10.532 0 0 0 -3.576 5.23 10.687 10.687 0 0 0 -6.207-1.178.9.9 0 0 0 -.765.766 10.215 10.215 0 0 0 2.8 8.413 10.037 10.037 0 0 0 7.167 2.887 8.856 8.856 0 0 0 1.251-.082c.02 0 .036-.016.055-.019s.059-.006.087-.014a9.324 9.324 0 0 0 .943.046 10.044 10.044 0 0 0 7.163-2.884 10.208 10.208 0 0 0 2.8-8.414m-11.166-2.855a8.586 8.586 0 0 1 2.693 6.036 8.392 8.392 0 0 1 -2.713 6.036 8.588 8.588 0 0 1 -2.694-6.036 8.388 8.388 0 0 1 2.714-6.036m-9.384 3.888a8.7 8.7 0 0 1 4.9 1.309c-.023.273-.036.552-.036.839a10.453 10.453 0 0 0 2.272 6.3 8.09 8.09 0 0 1 -4.772-2.275 8.6 8.6 0 0 1 -2.364-6.173m16.475 6.1a8.1 8.1 0 0 1 -4.851 2.288 9.838 9.838 0 0 0 2.26-6.24c0-.161-.008-.456-.048-.841a8.512 8.512 0 0 1 5-1.38 8.589 8.589 0 0 1 -2.363 6.176" fill="#949b76"/></svg>